<?xml version="1.0" ?><!DOCTYPE svg  PUBLIC '-//W3C//DTD SVG 1.0//EN'  'http://www.w3.org/TR/2001/REC-SVG-20010904/DTD/svg10.dtd'><svg enable-background="new 0 0 100 100" id="Layer_1" version="1.0" viewBox="0 0 100 100" xml:space="preserve" xmlns="http://www.w3.org/2000/svg" xmlns:xlink="http://www.w3.org/1999/xlink"><g><path clip-rule="evenodd" d="M10.4,38.7c0,0.5-0.4,0.8-0.8,0.8c-0.5,0-0.8-0.4-0.8-0.8   c0-0.4,0.4-0.8,0.8-0.8C10,37.9,10.4,38.2,10.4,38.7L10.4,38.7z" fill="#B4B4B4" fill-rule="evenodd"/><path clip-rule="evenodd" d="M13.7,38.7c0,0.5-0.4,0.8-0.8,0.8S12,39.1,12,38.7   c0-0.4,0.3-0.8,0.8-0.8S13.7,38.2,13.7,38.7L13.7,38.7z" fill="#B4B4B4" fill-rule="evenodd"/><path clip-rule="evenodd" d="M13.7,41.9c0,0.5-0.4,0.8-0.8,0.8S12,42.4,12,41.9   c0-0.5,0.3-0.8,0.8-0.8S13.7,41.5,13.7,41.9L13.7,41.9z" fill="#B4B4B4" fill-rule="evenodd"/><path clip-rule="evenodd" d="M13.7,45.1c0,0.5-0.4,0.8-0.8,0.8S12,45.6,12,45.1   s0.3-0.8,0.8-0.8S13.7,44.7,13.7,45.1L13.7,45.1z" fill="#B4B4B4" fill-rule="evenodd"/><path clip-rule="evenodd" d="M16.9,38.7c0,0.5-0.4,0.8-0.8,0.8c-0.5,0-0.8-0.4-0.8-0.8   c0-0.4,0.4-0.8,0.8-0.8C16.5,37.9,16.9,38.2,16.9,38.7L16.9,38.7z" fill="#B4B4B4" fill-rule="evenodd"/><path clip-rule="evenodd" d="M16.9,41.9c0,0.5-0.4,0.8-0.8,0.8c-0.5,0-0.8-0.4-0.8-0.8   c0-0.5,0.4-0.8,0.8-0.8C16.5,41.1,16.9,41.5,16.9,41.9L16.9,41.9z" fill="#B4B4B4" fill-rule="evenodd"/><path clip-rule="evenodd" d="M16.9,45.1c0,0.5-0.4,0.8-0.8,0.8c-0.5,0-0.8-0.3-0.8-0.8   s0.4-0.8,0.8-0.8C16.5,44.3,16.9,44.7,16.9,45.1L16.9,45.1z" fill="#B4B4B4" fill-rule="evenodd"/><path clip-rule="evenodd" d="M16.9,48.4c0,0.4-0.4,0.8-0.8,0.8c-0.5,0-0.8-0.4-0.8-0.8   c0-0.5,0.4-0.8,0.8-0.8C16.5,47.6,16.9,47.9,16.9,48.4L16.9,48.4z" fill="#B4B4B4" fill-rule="evenodd"/><path clip-rule="evenodd" d="M16.9,51.6c0,0.5-0.4,0.8-0.8,0.8c-0.5,0-0.8-0.3-0.8-0.8   c0-0.5,0.4-0.8,0.8-0.8C16.5,50.8,16.9,51.1,16.9,51.6L16.9,51.6z" fill="#B4B4B4" fill-rule="evenodd"/><path clip-rule="evenodd" d="M20.1,38.7c0,0.5-0.4,0.8-0.8,0.8c-0.5,0-0.8-0.4-0.8-0.8   c0-0.4,0.4-0.8,0.8-0.8C19.8,37.9,20.1,38.2,20.1,38.7L20.1,38.7z" fill="#B4B4B4" fill-rule="evenodd"/><path clip-rule="evenodd" d="M20.1,41.9c0,0.5-0.4,0.8-0.8,0.8c-0.5,0-0.8-0.4-0.8-0.8   c0-0.5,0.4-0.8,0.8-0.8C19.8,41.1,20.1,41.5,20.1,41.9L20.1,41.9z" fill="#B4B4B4" fill-rule="evenodd"/><path clip-rule="evenodd" d="M20.1,45.1c0,0.5-0.4,0.8-0.8,0.8c-0.5,0-0.8-0.3-0.8-0.8   s0.4-0.8,0.8-0.8C19.8,44.3,20.1,44.7,20.1,45.1L20.1,45.1z" fill="#B4B4B4" fill-rule="evenodd"/><path clip-rule="evenodd" d="M20.1,48.4c0,0.4-0.4,0.8-0.8,0.8c-0.5,0-0.8-0.4-0.8-0.8   c0-0.5,0.4-0.8,0.8-0.8C19.8,47.6,20.1,47.9,20.1,48.4L20.1,48.4z" fill="#B4B4B4" fill-rule="evenodd"/><path clip-rule="evenodd" d="M20.1,51.6c0,0.5-0.4,0.8-0.8,0.8c-0.5,0-0.8-0.3-0.8-0.8   c0-0.5,0.4-0.8,0.8-0.8C19.8,50.8,20.1,51.1,20.1,51.6L20.1,51.6z" fill="#B4B4B4" fill-rule="evenodd"/><path clip-rule="evenodd" d="M20.1,54.9c0,0.4-0.4,0.8-0.8,0.8c-0.5,0-0.8-0.4-0.8-0.8   c0-0.5,0.4-0.8,0.8-0.8C19.8,54,20.1,54.4,20.1,54.9L20.1,54.9z" fill="#B4B4B4" fill-rule="evenodd"/><path clip-rule="evenodd" d="M23.4,38.7c0,0.5-0.4,0.8-0.8,0.8c-0.4,0-0.8-0.4-0.8-0.8   c0-0.4,0.4-0.8,0.8-0.8C23,37.9,23.4,38.2,23.4,38.7L23.4,38.7z" fill="#B4B4B4" fill-rule="evenodd"/><path clip-rule="evenodd" d="M23.4,41.9c0,0.5-0.4,0.8-0.8,0.8c-0.4,0-0.8-0.4-0.8-0.8   c0-0.5,0.4-0.8,0.8-0.8C23,41.1,23.4,41.5,23.4,41.9L23.4,41.9z" fill="#B4B4B4" fill-rule="evenodd"/><path clip-rule="evenodd" d="M23.4,45.1c0,0.5-0.4,0.8-0.8,0.8c-0.4,0-0.8-0.3-0.8-0.8   s0.4-0.8,0.8-0.8C23,44.3,23.4,44.7,23.4,45.1L23.4,45.1z" fill="#B4B4B4" fill-rule="evenodd"/><path clip-rule="evenodd" d="M23.4,48.4c0,0.4-0.4,0.8-0.8,0.8c-0.4,0-0.8-0.4-0.8-0.8   c0-0.5,0.4-0.8,0.8-0.8C23,47.6,23.4,47.9,23.4,48.4L23.4,48.4z" fill="#B4B4B4" fill-rule="evenodd"/><path clip-rule="evenodd" d="M23.4,51.6c0,0.5-0.4,0.8-0.8,0.8c-0.4,0-0.8-0.3-0.8-0.8   c0-0.5,0.4-0.8,0.8-0.8C23,50.8,23.4,51.1,23.4,51.6L23.4,51.6z" fill="#B4B4B4" fill-rule="evenodd"/><path clip-rule="evenodd" d="M23.4,54.9c0,0.4-0.4,0.8-0.8,0.8c-0.4,0-0.8-0.4-0.8-0.8   c0-0.5,0.4-0.8,0.8-0.8C23,54,23.4,54.4,23.4,54.9L23.4,54.9z" fill="#B4B4B4" fill-rule="evenodd"/><path clip-rule="evenodd" d="M23.4,58.1c0,0.5-0.4,0.8-0.8,0.8c-0.4,0-0.8-0.4-0.8-0.8   c0-0.4,0.4-0.8,0.8-0.8C23,57.3,23.4,57.6,23.4,58.1L23.4,58.1z" fill="#B4B4B4" fill-rule="evenodd"/><path clip-rule="evenodd" d="M26.6,38.7c0,0.5-0.4,0.8-0.8,0.8c-0.4,0-0.8-0.4-0.8-0.8   c0-0.4,0.4-0.8,0.8-0.8C26.2,37.9,26.6,38.2,26.6,38.7L26.6,38.7z" fill="#B4B4B4" fill-rule="evenodd"/><path clip-rule="evenodd" d="M26.6,41.9c0,0.5-0.4,0.8-0.8,0.8c-0.4,0-0.8-0.4-0.8-0.8   c0-0.5,0.4-0.8,0.8-0.8C26.2,41.1,26.6,41.5,26.6,41.9L26.6,41.9z" fill="#B4B4B4" fill-rule="evenodd"/><path clip-rule="evenodd" d="M26.6,45.1c0,0.5-0.4,0.8-0.8,0.8c-0.4,0-0.8-0.3-0.8-0.8   s0.4-0.8,0.8-0.8C26.2,44.3,26.6,44.7,26.6,45.1L26.6,45.1z" fill="#B4B4B4" fill-rule="evenodd"/><path clip-rule="evenodd" d="M26.6,48.4c0,0.4-0.4,0.8-0.8,0.8c-0.4,0-0.8-0.4-0.8-0.8   c0-0.5,0.4-0.8,0.8-0.8C26.2,47.6,26.6,47.9,26.6,48.4L26.6,48.4z" fill="#B4B4B4" fill-rule="evenodd"/><path clip-rule="evenodd" d="M26.6,51.6c0,0.5-0.4,0.8-0.8,0.8c-0.4,0-0.8-0.3-0.8-0.8   c0-0.5,0.4-0.8,0.8-0.8C26.2,50.8,26.6,51.1,26.6,51.6L26.6,51.6z" fill="#B4B4B4" fill-rule="evenodd"/><path clip-rule="evenodd" d="M26.6,54.9c0,0.4-0.4,0.8-0.8,0.8c-0.4,0-0.8-0.4-0.8-0.8   c0-0.5,0.4-0.8,0.8-0.8C26.2,54,26.6,54.4,26.6,54.9L26.6,54.9z" fill="#B4B4B4" fill-rule="evenodd"/><path clip-rule="evenodd" d="M26.6,58.1c0,0.5-0.4,0.8-0.8,0.8c-0.4,0-0.8-0.4-0.8-0.8   c0-0.4,0.4-0.8,0.8-0.8C26.2,57.3,26.6,57.6,26.6,58.1L26.6,58.1z" fill="#B4B4B4" fill-rule="evenodd"/><path clip-rule="evenodd" d="M26.6,61.3c0,0.5-0.4,0.8-0.8,0.8c-0.4,0-0.8-0.4-0.8-0.8   c0-0.5,0.4-0.8,0.8-0.8C26.2,60.5,26.6,60.9,26.6,61.3L26.6,61.3z" fill="#B4B4B4" fill-rule="evenodd"/><path clip-rule="evenodd" d="M29.8,35.5c0,0.5-0.4,0.8-0.8,0.8s-0.8-0.3-0.8-0.8   c0-0.5,0.3-0.8,0.8-0.8S29.8,35,29.8,35.5L29.8,35.5z" fill="#B4B4B4" fill-rule="evenodd"/><path clip-rule="evenodd" d="M29.8,38.7c0,0.5-0.4,0.8-0.8,0.8s-0.8-0.4-0.8-0.8   c0-0.4,0.3-0.8,0.8-0.8S29.8,38.2,29.8,38.7L29.8,38.7z" fill="#B4B4B4" fill-rule="evenodd"/><path clip-rule="evenodd" d="M29.8,41.9c0,0.5-0.4,0.8-0.8,0.8s-0.8-0.4-0.8-0.8   c0-0.5,0.3-0.8,0.8-0.8S29.8,41.5,29.8,41.9L29.8,41.9z" fill="#B4B4B4" fill-rule="evenodd"/><path clip-rule="evenodd" d="M29.8,45.1c0,0.5-0.4,0.8-0.8,0.8s-0.8-0.3-0.8-0.8   s0.3-0.8,0.8-0.8S29.8,44.7,29.8,45.1L29.8,45.1z" fill="#B4B4B4" fill-rule="evenodd"/><path clip-rule="evenodd" d="M29.8,48.4c0,0.4-0.4,0.8-0.8,0.8s-0.8-0.4-0.8-0.8   c0-0.5,0.3-0.8,0.8-0.8S29.8,47.9,29.8,48.4L29.8,48.4z" fill="#B4B4B4" fill-rule="evenodd"/><path clip-rule="evenodd" d="M29.8,51.6c0,0.5-0.4,0.8-0.8,0.8s-0.8-0.3-0.8-0.8   c0-0.5,0.3-0.8,0.8-0.8S29.8,51.1,29.8,51.6L29.8,51.6z" fill="#B4B4B4" fill-rule="evenodd"/><path clip-rule="evenodd" d="M29.8,54.9c0,0.4-0.4,0.8-0.8,0.8s-0.8-0.4-0.8-0.8   c0-0.5,0.3-0.8,0.8-0.8S29.8,54.4,29.8,54.9L29.8,54.9z" fill="#B4B4B4" fill-rule="evenodd"/><path clip-rule="evenodd" d="M29.8,58.1c0,0.5-0.4,0.8-0.8,0.8s-0.8-0.4-0.8-0.8   c0-0.4,0.3-0.8,0.8-0.8S29.8,57.6,29.8,58.1L29.8,58.1z" fill="#B4B4B4" fill-rule="evenodd"/><path clip-rule="evenodd" d="M29.8,61.3c0,0.5-0.4,0.8-0.8,0.8s-0.8-0.4-0.8-0.8   c0-0.5,0.3-0.8,0.8-0.8S29.8,60.9,29.8,61.3L29.8,61.3z" fill="#B4B4B4" fill-rule="evenodd"/><path clip-rule="evenodd" d="M33,32.2c0,0.5-0.4,0.8-0.8,0.8s-0.8-0.4-0.8-0.8s0.3-0.8,0.8-0.8   S33,31.8,33,32.2L33,32.2z" fill="#B4B4B4" fill-rule="evenodd"/><path clip-rule="evenodd" d="M33,35.5c0,0.5-0.4,0.8-0.8,0.8s-0.8-0.3-0.8-0.8   c0-0.5,0.3-0.8,0.8-0.8S33,35,33,35.5L33,35.5z" fill="#B4B4B4" fill-rule="evenodd"/><path clip-rule="evenodd" d="M33,38.7c0,0.5-0.4,0.8-0.8,0.8s-0.8-0.4-0.8-0.8   c0-0.4,0.3-0.8,0.8-0.8S33,38.2,33,38.7L33,38.7z" fill="#B4B4B4" fill-rule="evenodd"/><path clip-rule="evenodd" d="M33,41.9c0,0.5-0.4,0.8-0.8,0.8s-0.8-0.4-0.8-0.8   c0-0.5,0.3-0.8,0.8-0.8S33,41.5,33,41.9L33,41.9z" fill="#B4B4B4" fill-rule="evenodd"/><path clip-rule="evenodd" d="M33,45.1c0,0.5-0.4,0.8-0.8,0.8s-0.8-0.3-0.8-0.8s0.3-0.8,0.8-0.8   S33,44.7,33,45.1L33,45.1z" fill="#B4B4B4" fill-rule="evenodd"/><path clip-rule="evenodd" d="M33,48.4c0,0.4-0.4,0.8-0.8,0.8s-0.8-0.4-0.8-0.8   c0-0.5,0.3-0.8,0.8-0.8S33,47.9,33,48.4L33,48.4z" fill="#B4B4B4" fill-rule="evenodd"/><path clip-rule="evenodd" d="M33,51.6c0,0.5-0.4,0.8-0.8,0.8s-0.8-0.3-0.8-0.8   c0-0.5,0.3-0.8,0.8-0.8S33,51.1,33,51.6L33,51.6z" fill="#B4B4B4" fill-rule="evenodd"/><path clip-rule="evenodd" d="M33,54.9c0,0.4-0.4,0.8-0.8,0.8s-0.8-0.4-0.8-0.8   c0-0.5,0.3-0.8,0.8-0.8S33,54.4,33,54.9L33,54.9z" fill="#B4B4B4" fill-rule="evenodd"/><path clip-rule="evenodd" d="M33,58.1c0,0.5-0.4,0.8-0.8,0.8s-0.8-0.4-0.8-0.8   c0-0.4,0.3-0.8,0.8-0.8S33,57.6,33,58.1L33,58.1z" fill="#B4B4B4" fill-rule="evenodd"/><path clip-rule="evenodd" d="M33,61.3c0,0.5-0.4,0.8-0.8,0.8s-0.8-0.4-0.8-0.8   c0-0.5,0.3-0.8,0.8-0.8S33,60.9,33,61.3L33,61.3z" fill="#B4B4B4" fill-rule="evenodd"/><path clip-rule="evenodd" d="M33,64.5c0,0.5-0.4,0.8-0.8,0.8s-0.8-0.4-0.8-0.8   c0-0.5,0.3-0.8,0.8-0.8S33,64.1,33,64.5L33,64.5z" fill="#B4B4B4" fill-rule="evenodd"/><path clip-rule="evenodd" d="M36.3,29c0,0.5-0.4,0.8-0.8,0.8c-0.5,0-0.8-0.4-0.8-0.8   c0-0.4,0.4-0.8,0.8-0.8C35.9,28.2,36.3,28.5,36.3,29L36.3,29z" fill="#349344" fill-rule="evenodd"/><path clip-rule="evenodd" d="M36.3,32.2c0,0.5-0.4,0.8-0.8,0.8c-0.5,0-0.8-0.4-0.8-0.8   s0.4-0.8,0.8-0.8C35.9,31.4,36.3,31.7,36.3,32.2L36.3,32.2z" fill="#349344" fill-rule="evenodd"/><path clip-rule="evenodd" d="M36.3,35.5c0,0.5-0.4,0.8-0.8,0.8c-0.5,0-0.8-0.3-0.8-0.8   s0.4-0.8,0.8-0.8C35.9,34.6,36.3,35,36.3,35.5L36.3,35.5z" fill="#349344" fill-rule="evenodd"/><path clip-rule="evenodd" d="M36.3,38.6c0,0.5-0.4,0.8-0.8,0.8c-0.5,0-0.8-0.4-0.8-0.8   c0-0.4,0.4-0.8,0.8-0.8C35.9,37.8,36.3,38.2,36.3,38.6L36.3,38.6z" fill="#349344" fill-rule="evenodd"/><path clip-rule="evenodd" d="M36.3,41.9c0,0.5-0.4,0.8-0.8,0.8c-0.5,0-0.8-0.4-0.8-0.8   c0-0.5,0.4-0.8,0.8-0.8C35.9,41.1,36.3,41.4,36.3,41.9L36.3,41.9z" fill="#349344" fill-rule="evenodd"/><path clip-rule="evenodd" d="M36.3,45.1c0,0.5-0.4,0.8-0.8,0.8c-0.5,0-0.8-0.4-0.8-0.8   c0-0.5,0.4-0.8,0.8-0.8C35.9,44.3,36.3,44.7,36.3,45.1L36.3,45.1z" fill="#349344" fill-rule="evenodd"/><path clip-rule="evenodd" d="M36.3,48.4c0,0.5-0.4,0.8-0.8,0.8c-0.5,0-0.8-0.3-0.8-0.8   c0-0.5,0.4-0.8,0.8-0.8C35.9,47.6,36.3,47.9,36.3,48.4L36.3,48.4z" fill="#349344" fill-rule="evenodd"/><path clip-rule="evenodd" d="M36.3,51.6c0,0.5-0.4,0.8-0.8,0.8c-0.5,0-0.8-0.3-0.8-0.8   c0-0.5,0.4-0.8,0.8-0.8C35.9,50.8,36.3,51.1,36.3,51.6L36.3,51.6z" fill="#349344" fill-rule="evenodd"/><path clip-rule="evenodd" d="M36.3,54.8c0,0.4-0.4,0.8-0.8,0.8c-0.5,0-0.8-0.4-0.8-0.8   c0-0.5,0.4-0.8,0.8-0.8C35.9,54,36.3,54.4,36.3,54.8L36.3,54.8z" fill="#349344" fill-rule="evenodd"/><path clip-rule="evenodd" d="M36.3,58.1c0,0.4-0.4,0.8-0.8,0.8c-0.5,0-0.8-0.4-0.8-0.8   c0-0.5,0.4-0.8,0.8-0.8C35.9,57.2,36.3,57.6,36.3,58.1L36.3,58.1z" fill="#349344" fill-rule="evenodd"/><path clip-rule="evenodd" d="M36.3,61.3c0,0.5-0.4,0.8-0.8,0.8c-0.5,0-0.8-0.4-0.8-0.8   c0-0.4,0.4-0.8,0.8-0.8C35.9,60.5,36.3,60.9,36.3,61.3L36.3,61.3z" fill="#349344" fill-rule="evenodd"/><path clip-rule="evenodd" d="M36.3,64.5c0,0.5-0.4,0.8-0.8,0.8c-0.5,0-0.8-0.4-0.8-0.8   s0.4-0.8,0.8-0.8C35.9,63.7,36.3,64,36.3,64.5L36.3,64.5z" fill="#349344" fill-rule="evenodd"/><path clip-rule="evenodd" d="M36.3,67.7c0,0.5-0.4,0.8-0.8,0.8c-0.5,0-0.8-0.3-0.8-0.8   s0.4-0.8,0.8-0.8C35.9,66.9,36.3,67.3,36.3,67.7L36.3,67.7z" fill="#349344" fill-rule="evenodd"/><path clip-rule="evenodd" d="M36.3,71c0,0.5-0.4,0.8-0.8,0.8c-0.5,0-0.8-0.3-0.8-0.8   s0.4-0.8,0.8-0.8C35.9,70.2,36.3,70.5,36.3,71L36.3,71z" fill="#349344" fill-rule="evenodd"/><path clip-rule="evenodd" d="M36.3,74.2c0,0.4-0.4,0.8-0.8,0.8c-0.5,0-0.8-0.4-0.8-0.8   c0-0.5,0.4-0.8,0.8-0.8C35.9,73.4,36.3,73.8,36.3,74.2L36.3,74.2z" fill="#349344" fill-rule="evenodd"/><path clip-rule="evenodd" d="M39.5,25.8c0,0.4-0.3,0.8-0.8,0.8c-0.5,0-0.8-0.4-0.8-0.8   c0-0.5,0.4-0.8,0.8-0.8C39.2,24.9,39.5,25.3,39.5,25.8L39.5,25.8z" fill="#349344" fill-rule="evenodd"/><path clip-rule="evenodd" d="M39.5,29c0,0.5-0.3,0.8-0.8,0.8c-0.5,0-0.8-0.4-0.8-0.8   c0-0.4,0.4-0.8,0.8-0.8C39.2,28.2,39.5,28.6,39.5,29L39.5,29z" fill="#349344" fill-rule="evenodd"/><path clip-rule="evenodd" d="M39.5,32.2c0,0.5-0.3,0.8-0.8,0.8c-0.5,0-0.8-0.4-0.8-0.8   c0-0.4,0.4-0.8,0.8-0.8C39.2,31.4,39.5,31.8,39.5,32.2L39.5,32.2z" fill="#349344" fill-rule="evenodd"/><path clip-rule="evenodd" d="M39.5,35.5c0,0.5-0.3,0.8-0.8,0.8c-0.5,0-0.8-0.4-0.8-0.8   c0-0.5,0.4-0.8,0.8-0.8C39.2,34.7,39.5,35,39.5,35.5L39.5,35.5z" fill="#349344" fill-rule="evenodd"/><path clip-rule="evenodd" d="M39.5,38.7c0,0.4-0.3,0.8-0.8,0.8c-0.5,0-0.8-0.4-0.8-0.8   c0-0.5,0.4-0.8,0.8-0.8C39.2,37.9,39.5,38.2,39.5,38.7L39.5,38.7z" fill="#349344" fill-rule="evenodd"/><path clip-rule="evenodd" d="M39.5,41.9c0,0.5-0.3,0.8-0.8,0.8c-0.5,0-0.8-0.4-0.8-0.8   c0-0.4,0.4-0.8,0.8-0.8C39.2,41.1,39.5,41.5,39.5,41.9L39.5,41.9z" fill="#349344" fill-rule="evenodd"/><path clip-rule="evenodd" d="M39.5,45.1c0,0.5-0.3,0.8-0.8,0.8c-0.5,0-0.8-0.4-0.8-0.8   s0.4-0.8,0.8-0.8C39.2,44.3,39.5,44.7,39.5,45.1L39.5,45.1z" fill="#349344" fill-rule="evenodd"/><path clip-rule="evenodd" d="M39.5,48.4c0,0.5-0.3,0.8-0.8,0.8c-0.5,0-0.8-0.3-0.8-0.8   c0-0.5,0.4-0.8,0.8-0.8C39.2,47.6,39.5,47.9,39.5,48.4L39.5,48.4z" fill="#349344" fill-rule="evenodd"/><path clip-rule="evenodd" d="M39.5,51.6c0,0.5-0.3,0.8-0.8,0.8c-0.5,0-0.8-0.4-0.8-0.8   c0-0.5,0.4-0.8,0.8-0.8C39.2,50.8,39.5,51.1,39.5,51.6L39.5,51.6z" fill="#349344" fill-rule="evenodd"/><path clip-rule="evenodd" d="M39.5,54.9c0,0.5-0.3,0.8-0.8,0.8c-0.5,0-0.8-0.3-0.8-0.8   c0-0.5,0.4-0.8,0.8-0.8C39.2,54,39.5,54.4,39.5,54.9L39.5,54.9z" fill="#349344" fill-rule="evenodd"/><path clip-rule="evenodd" d="M39.5,58.1c0,0.4-0.3,0.8-0.8,0.8c-0.5,0-0.8-0.4-0.8-0.8   c0-0.5,0.4-0.8,0.8-0.8C39.2,57.3,39.5,57.6,39.5,58.1L39.5,58.1z" fill="#349344" fill-rule="evenodd"/><path clip-rule="evenodd" d="M39.5,61.3c0,0.5-0.3,0.8-0.8,0.8c-0.5,0-0.8-0.4-0.8-0.8   c0-0.4,0.4-0.8,0.8-0.8C39.2,60.5,39.5,60.9,39.5,61.3L39.5,61.3z" fill="#349344" fill-rule="evenodd"/><path clip-rule="evenodd" d="M39.5,64.5c0,0.5-0.3,0.8-0.8,0.8c-0.5,0-0.8-0.4-0.8-0.8   c0-0.4,0.4-0.8,0.8-0.8C39.2,63.7,39.5,64.1,39.5,64.5L39.5,64.5z" fill="#349344" fill-rule="evenodd"/><path clip-rule="evenodd" d="M39.5,67.8c0,0.5-0.3,0.8-0.8,0.8c-0.5,0-0.8-0.4-0.8-0.8   s0.4-0.8,0.8-0.8C39.2,67,39.5,67.3,39.5,67.8L39.5,67.8z" fill="#349344" fill-rule="evenodd"/><path clip-rule="evenodd" d="M39.5,71c0,0.5-0.3,0.8-0.8,0.8c-0.5,0-0.8-0.3-0.8-0.8   s0.4-0.8,0.8-0.8C39.2,70.2,39.5,70.5,39.5,71L39.5,71z" fill="#349344" fill-rule="evenodd"/><path clip-rule="evenodd" d="M39.5,74.3c0,0.4-0.3,0.8-0.8,0.8c-0.5,0-0.8-0.4-0.8-0.8   c0-0.5,0.4-0.8,0.8-0.8C39.2,73.4,39.5,73.8,39.5,74.3L39.5,74.3z" fill="#349344" fill-rule="evenodd"/><path clip-rule="evenodd" d="M39.5,77.4c0,0.5-0.3,0.8-0.8,0.8c-0.5,0-0.8-0.4-0.8-0.8   s0.4-0.8,0.8-0.8C39.2,76.6,39.5,77,39.5,77.4L39.5,77.4z" fill="#349344" fill-rule="evenodd"/><path clip-rule="evenodd" d="M42.7,25.8c0,0.4-0.4,0.8-0.8,0.8c-0.4,0-0.8-0.4-0.8-0.8   c0-0.5,0.4-0.8,0.8-0.8C42.4,24.9,42.7,25.3,42.7,25.8L42.7,25.8z" fill="#349344" fill-rule="evenodd"/><path clip-rule="evenodd" d="M42.7,29c0,0.5-0.4,0.8-0.8,0.8c-0.4,0-0.8-0.4-0.8-0.8   c0-0.4,0.4-0.8,0.8-0.8C42.4,28.2,42.7,28.6,42.7,29L42.7,29z" fill="#349344" fill-rule="evenodd"/><path clip-rule="evenodd" d="M42.7,32.2c0,0.5-0.4,0.8-0.8,0.8c-0.4,0-0.8-0.4-0.8-0.8   c0-0.4,0.4-0.8,0.8-0.8C42.4,31.4,42.7,31.8,42.7,32.2L42.7,32.2z" fill="#349344" fill-rule="evenodd"/><path clip-rule="evenodd" d="M42.7,35.5c0,0.5-0.4,0.8-0.8,0.8c-0.4,0-0.8-0.4-0.8-0.8   c0-0.5,0.4-0.8,0.8-0.8C42.4,34.7,42.7,35,42.7,35.5L42.7,35.5z" fill="#349344" fill-rule="evenodd"/><path clip-rule="evenodd" d="M42.7,38.7c0,0.4-0.4,0.8-0.8,0.8c-0.4,0-0.8-0.4-0.8-0.8   c0-0.5,0.4-0.8,0.8-0.8C42.4,37.9,42.7,38.2,42.7,38.7L42.7,38.7z" fill="#349344" fill-rule="evenodd"/><path clip-rule="evenodd" d="M42.7,41.9c0,0.5-0.4,0.8-0.8,0.8c-0.4,0-0.8-0.4-0.8-0.8   c0-0.4,0.4-0.8,0.8-0.8C42.4,41.1,42.7,41.5,42.7,41.9L42.7,41.9z" fill="#349344" fill-rule="evenodd"/><path clip-rule="evenodd" d="M42.7,45.1c0,0.5-0.4,0.8-0.8,0.8c-0.4,0-0.8-0.4-0.8-0.8   s0.4-0.8,0.8-0.8C42.4,44.3,42.7,44.7,42.7,45.1L42.7,45.1z" fill="#349344" fill-rule="evenodd"/><path clip-rule="evenodd" d="M42.7,48.4c0,0.5-0.4,0.8-0.8,0.8c-0.4,0-0.8-0.3-0.8-0.8   c0-0.5,0.4-0.8,0.8-0.8C42.4,47.6,42.7,47.9,42.7,48.4L42.7,48.4z" fill="#349344" fill-rule="evenodd"/><path clip-rule="evenodd" d="M42.7,51.6c0,0.5-0.4,0.8-0.8,0.8c-0.4,0-0.8-0.4-0.8-0.8   c0-0.5,0.4-0.8,0.8-0.8C42.4,50.8,42.7,51.1,42.7,51.6L42.7,51.6z" fill="#349344" fill-rule="evenodd"/><path clip-rule="evenodd" d="M42.7,54.9c0,0.5-0.4,0.8-0.8,0.8c-0.4,0-0.8-0.3-0.8-0.8   c0-0.5,0.4-0.8,0.8-0.8C42.4,54,42.7,54.4,42.7,54.9L42.7,54.9z" fill="#349344" fill-rule="evenodd"/><path clip-rule="evenodd" d="M42.7,58.1c0,0.4-0.4,0.8-0.8,0.8c-0.4,0-0.8-0.4-0.8-0.8   c0-0.5,0.4-0.8,0.8-0.8C42.4,57.3,42.7,57.6,42.7,58.1L42.7,58.1z" fill="#349344" fill-rule="evenodd"/><path clip-rule="evenodd" d="M42.7,61.3c0,0.5-0.4,0.8-0.8,0.8c-0.4,0-0.8-0.4-0.8-0.8   c0-0.4,0.4-0.8,0.8-0.8C42.4,60.5,42.7,60.9,42.7,61.3L42.7,61.3z" fill="#349344" fill-rule="evenodd"/><path clip-rule="evenodd" d="M42.7,64.5c0,0.5-0.4,0.8-0.8,0.8c-0.4,0-0.8-0.4-0.8-0.8   c0-0.4,0.4-0.8,0.8-0.8C42.4,63.7,42.7,64.1,42.7,64.5L42.7,64.5z" fill="#349344" fill-rule="evenodd"/><path clip-rule="evenodd" d="M42.7,67.8c0,0.5-0.4,0.8-0.8,0.8c-0.4,0-0.8-0.4-0.8-0.8   s0.4-0.8,0.8-0.8C42.4,67,42.7,67.3,42.7,67.8L42.7,67.8z" fill="#349344" fill-rule="evenodd"/><path clip-rule="evenodd" d="M42.7,71c0,0.5-0.4,0.8-0.8,0.8c-0.4,0-0.8-0.3-0.8-0.8   s0.4-0.8,0.8-0.8C42.4,70.2,42.7,70.5,42.7,71L42.7,71z" fill="#349344" fill-rule="evenodd"/><path clip-rule="evenodd" d="M42.7,74.3c0,0.4-0.4,0.8-0.8,0.8c-0.4,0-0.8-0.4-0.8-0.8   c0-0.5,0.4-0.8,0.8-0.8C42.4,73.4,42.7,73.8,42.7,74.3L42.7,74.3z" fill="#349344" fill-rule="evenodd"/><path clip-rule="evenodd" d="M42.7,77.4c0,0.5-0.4,0.8-0.8,0.8c-0.4,0-0.8-0.4-0.8-0.8   s0.4-0.8,0.8-0.8C42.4,76.6,42.7,77,42.7,77.4L42.7,77.4z" fill="#349344" fill-rule="evenodd"/><path clip-rule="evenodd" d="M46,22.5c0,0.5-0.3,0.8-0.8,0.8s-0.8-0.4-0.8-0.8   c0-0.4,0.4-0.8,0.8-0.8S46,22.1,46,22.5L46,22.5z" fill="#349344" fill-rule="evenodd"/><path clip-rule="evenodd" d="M46,29c0,0.5-0.3,0.8-0.8,0.8s-0.8-0.4-0.8-0.8   c0-0.4,0.4-0.8,0.8-0.8S46,28.6,46,29L46,29z" fill="#349344" fill-rule="evenodd"/><path clip-rule="evenodd" d="M46,32.2c0,0.5-0.3,0.8-0.8,0.8s-0.8-0.4-0.8-0.8   c0-0.4,0.4-0.8,0.8-0.8S46,31.8,46,32.2L46,32.2z" fill="#349344" fill-rule="evenodd"/><path clip-rule="evenodd" d="M46,35.5c0,0.5-0.3,0.8-0.8,0.8s-0.8-0.4-0.8-0.8   c0-0.5,0.4-0.8,0.8-0.8S46,35,46,35.5L46,35.5z" fill="#349344" fill-rule="evenodd"/><path clip-rule="evenodd" d="M46,38.7c0,0.4-0.3,0.8-0.8,0.8s-0.8-0.4-0.8-0.8   c0-0.5,0.4-0.8,0.8-0.8S46,38.2,46,38.7L46,38.7z" fill="#349344" fill-rule="evenodd"/><path clip-rule="evenodd" d="M46,41.9c0,0.5-0.3,0.8-0.8,0.8s-0.8-0.4-0.8-0.8   c0-0.4,0.4-0.8,0.8-0.8S46,41.5,46,41.9L46,41.9z" fill="#349344" fill-rule="evenodd"/><path clip-rule="evenodd" d="M46,45.1c0,0.5-0.3,0.8-0.8,0.8s-0.8-0.4-0.8-0.8s0.4-0.8,0.8-0.8   S46,44.7,46,45.1L46,45.1z" fill="#349344" fill-rule="evenodd"/><path clip-rule="evenodd" d="M46,48.4c0,0.5-0.3,0.8-0.8,0.8s-0.8-0.3-0.8-0.8   c0-0.5,0.4-0.8,0.8-0.8S46,47.9,46,48.4L46,48.4z" fill="#349344" fill-rule="evenodd"/><path clip-rule="evenodd" d="M46,51.6c0,0.5-0.3,0.8-0.8,0.8s-0.8-0.4-0.8-0.8   c0-0.5,0.4-0.8,0.8-0.8S46,51.1,46,51.6L46,51.6z" fill="#349344" fill-rule="evenodd"/><path clip-rule="evenodd" d="M46,54.9c0,0.5-0.3,0.8-0.8,0.8s-0.8-0.3-0.8-0.8   c0-0.5,0.4-0.8,0.8-0.8S46,54.4,46,54.9L46,54.9z" fill="#349344" fill-rule="evenodd"/><path clip-rule="evenodd" d="M46,58.1c0,0.4-0.3,0.8-0.8,0.8s-0.8-0.4-0.8-0.8   c0-0.5,0.4-0.8,0.8-0.8S46,57.6,46,58.1L46,58.1z" fill="#349344" fill-rule="evenodd"/><path clip-rule="evenodd" d="M46,61.3c0,0.5-0.3,0.8-0.8,0.8s-0.8-0.4-0.8-0.8   c0-0.4,0.4-0.8,0.8-0.8S46,60.9,46,61.3L46,61.3z" fill="#349344" fill-rule="evenodd"/><path clip-rule="evenodd" d="M46,64.5c0,0.5-0.3,0.8-0.8,0.8s-0.8-0.4-0.8-0.8   c0-0.4,0.4-0.8,0.8-0.8S46,64.1,46,64.5L46,64.5z" fill="#349344" fill-rule="evenodd"/><path clip-rule="evenodd" d="M46,67.8c0,0.5-0.3,0.8-0.8,0.8s-0.8-0.4-0.8-0.8s0.4-0.8,0.8-0.8   S46,67.3,46,67.8L46,67.8z" fill="#349344" fill-rule="evenodd"/><path clip-rule="evenodd" d="M46,71c0,0.5-0.3,0.8-0.8,0.8s-0.8-0.3-0.8-0.8s0.4-0.8,0.8-0.8   S46,70.5,46,71L46,71z" fill="#349344" fill-rule="evenodd"/><path clip-rule="evenodd" d="M46,74.3c0,0.4-0.3,0.8-0.8,0.8s-0.8-0.4-0.8-0.8   c0-0.5,0.4-0.8,0.8-0.8S46,73.8,46,74.3L46,74.3z" fill="#349344" fill-rule="evenodd"/><path clip-rule="evenodd" d="M46,77.4c0,0.5-0.3,0.8-0.8,0.8s-0.8-0.4-0.8-0.8s0.4-0.8,0.8-0.8   S46,77,46,77.4L46,77.4z" fill="#349344" fill-rule="evenodd"/><path clip-rule="evenodd" d="M46,80.7c0,0.5-0.3,0.8-0.8,0.8s-0.8-0.3-0.8-0.8s0.4-0.8,0.8-0.8   S46,80.2,46,80.7L46,80.7z" fill="#349344" fill-rule="evenodd"/><path clip-rule="evenodd" d="M49.2,16.1c0,0.5-0.3,0.8-0.8,0.8s-0.8-0.3-0.8-0.8   c0-0.5,0.4-0.8,0.8-0.8S49.2,15.6,49.2,16.1L49.2,16.1z" fill="#FED208" fill-rule="evenodd"/><path clip-rule="evenodd" d="M49.2,19.3c0,0.4-0.3,0.8-0.8,0.8s-0.8-0.4-0.8-0.8   c0-0.5,0.4-0.8,0.8-0.8S49.2,18.9,49.2,19.3L49.2,19.3z" fill="#FED208" fill-rule="evenodd"/><path clip-rule="evenodd" d="M49.2,22.5c0,0.5-0.3,0.8-0.8,0.8s-0.8-0.4-0.8-0.8   c0-0.4,0.4-0.8,0.8-0.8S49.2,22.1,49.2,22.5L49.2,22.5z" fill="#FED208" fill-rule="evenodd"/><path clip-rule="evenodd" d="M49.2,25.8c0,0.4-0.3,0.8-0.8,0.8s-0.8-0.4-0.8-0.8   c0-0.5,0.4-0.8,0.8-0.8S49.2,25.3,49.2,25.8L49.2,25.8z" fill="#FED208" fill-rule="evenodd"/><path clip-rule="evenodd" d="M49.2,29c0,0.5-0.3,0.8-0.8,0.8s-0.8-0.4-0.8-0.8   c0-0.4,0.4-0.8,0.8-0.8S49.2,28.6,49.2,29L49.2,29z" fill="#FED208" fill-rule="evenodd"/><path clip-rule="evenodd" d="M49.2,32.2c0,0.5-0.3,0.8-0.8,0.8s-0.8-0.4-0.8-0.8   c0-0.4,0.4-0.8,0.8-0.8S49.2,31.8,49.2,32.2L49.2,32.2z" fill="#FED208" fill-rule="evenodd"/><path clip-rule="evenodd" d="M49.2,35.5c0,0.5-0.3,0.8-0.8,0.8s-0.8-0.4-0.8-0.8   c0-0.5,0.4-0.8,0.8-0.8S49.2,35,49.2,35.5L49.2,35.5z" fill="#FED208" fill-rule="evenodd"/><path clip-rule="evenodd" d="M49.2,38.7c0,0.4-0.3,0.8-0.8,0.8s-0.8-0.4-0.8-0.8   c0-0.5,0.4-0.8,0.8-0.8S49.2,38.2,49.2,38.7L49.2,38.7z" fill="#FED208" fill-rule="evenodd"/><path clip-rule="evenodd" d="M49.2,41.9c0,0.5-0.3,0.8-0.8,0.8s-0.8-0.4-0.8-0.8   c0-0.4,0.4-0.8,0.8-0.8S49.2,41.5,49.2,41.9L49.2,41.9z" fill="#FED208" fill-rule="evenodd"/><path clip-rule="evenodd" d="M49.2,45.1c0,0.5-0.3,0.8-0.8,0.8s-0.8-0.4-0.8-0.8   s0.4-0.8,0.8-0.8S49.2,44.7,49.2,45.1L49.2,45.1z" fill="#FED208" fill-rule="evenodd"/><path clip-rule="evenodd" d="M49.2,48.4c0,0.5-0.3,0.8-0.8,0.8s-0.8-0.3-0.8-0.8   c0-0.5,0.4-0.8,0.8-0.8S49.2,47.9,49.2,48.4L49.2,48.4z" fill="#FED208" fill-rule="evenodd"/><path clip-rule="evenodd" d="M49.2,51.6c0,0.5-0.3,0.8-0.8,0.8s-0.8-0.4-0.8-0.8   c0-0.5,0.4-0.8,0.8-0.8S49.2,51.1,49.2,51.6L49.2,51.6z" fill="#FED208" fill-rule="evenodd"/><path clip-rule="evenodd" d="M49.2,54.9c0,0.5-0.3,0.8-0.8,0.8s-0.8-0.3-0.8-0.8   c0-0.5,0.4-0.8,0.8-0.8S49.2,54.4,49.2,54.9L49.2,54.9z" fill="#FED208" fill-rule="evenodd"/><path clip-rule="evenodd" d="M49.2,58.1c0,0.4-0.3,0.8-0.8,0.8s-0.8-0.4-0.8-0.8   c0-0.5,0.4-0.8,0.8-0.8S49.2,57.6,49.2,58.1L49.2,58.1z" fill="#FED208" fill-rule="evenodd"/><path clip-rule="evenodd" d="M49.2,61.3c0,0.5-0.3,0.8-0.8,0.8s-0.8-0.4-0.8-0.8   c0-0.4,0.4-0.8,0.8-0.8S49.2,60.9,49.2,61.3L49.2,61.3z" fill="#FED208" fill-rule="evenodd"/><path clip-rule="evenodd" d="M49.2,64.5c0,0.5-0.3,0.8-0.8,0.8s-0.8-0.4-0.8-0.8   c0-0.4,0.4-0.8,0.8-0.8S49.2,64.1,49.2,64.5L49.2,64.5z" fill="#FED208" fill-rule="evenodd"/><path clip-rule="evenodd" d="M49.2,67.8c0,0.5-0.3,0.8-0.8,0.8s-0.8-0.4-0.8-0.8   s0.4-0.8,0.8-0.8S49.2,67.3,49.2,67.8L49.2,67.8z" fill="#FED208" fill-rule="evenodd"/><path clip-rule="evenodd" d="M49.2,71c0,0.5-0.3,0.8-0.8,0.8s-0.8-0.3-0.8-0.8s0.4-0.8,0.8-0.8   S49.2,70.5,49.2,71L49.2,71z" fill="#FED208" fill-rule="evenodd"/><path clip-rule="evenodd" d="M49.2,74.3c0,0.4-0.3,0.8-0.8,0.8s-0.8-0.4-0.8-0.8   c0-0.5,0.4-0.8,0.8-0.8S49.2,73.8,49.2,74.3L49.2,74.3z" fill="#FED208" fill-rule="evenodd"/><path clip-rule="evenodd" d="M49.2,77.4c0,0.5-0.3,0.8-0.8,0.8s-0.8-0.4-0.8-0.8   s0.4-0.8,0.8-0.8S49.2,77,49.2,77.4L49.2,77.4z" fill="#FED208" fill-rule="evenodd"/><path clip-rule="evenodd" d="M49.2,80.7c0,0.5-0.3,0.8-0.8,0.8s-0.8-0.3-0.8-0.8   s0.4-0.8,0.8-0.8S49.2,80.2,49.2,80.7L49.2,80.7z" fill="#FED208" fill-rule="evenodd"/><path clip-rule="evenodd" d="M49.2,83.9c0,0.4-0.3,0.8-0.8,0.8s-0.8-0.4-0.8-0.8   c0-0.5,0.4-0.8,0.8-0.8S49.2,83.5,49.2,83.9L49.2,83.9z" fill="#FED208" fill-rule="evenodd"/><path clip-rule="evenodd" d="M52.4,16.1c0,0.5-0.3,0.8-0.8,0.8s-0.8-0.3-0.8-0.8   c0-0.5,0.4-0.8,0.8-0.8S52.4,15.6,52.4,16.1L52.4,16.1z" fill="#FED208" fill-rule="evenodd"/><path clip-rule="evenodd" d="M52.4,19.3c0,0.4-0.3,0.8-0.8,0.8s-0.8-0.4-0.8-0.8   c0-0.5,0.4-0.8,0.8-0.8S52.4,18.9,52.4,19.3L52.4,19.3z" fill="#FED208" fill-rule="evenodd"/><path clip-rule="evenodd" d="M52.4,22.5c0,0.5-0.3,0.8-0.8,0.8s-0.8-0.4-0.8-0.8   c0-0.4,0.4-0.8,0.8-0.8S52.4,22.1,52.4,22.5L52.4,22.5z" fill="#FED208" fill-rule="evenodd"/><path clip-rule="evenodd" d="M52.4,25.8c0,0.4-0.3,0.8-0.8,0.8s-0.8-0.4-0.8-0.8   c0-0.5,0.4-0.8,0.8-0.8S52.4,25.3,52.4,25.8L52.4,25.8z" fill="#FED208" fill-rule="evenodd"/><path clip-rule="evenodd" d="M52.4,29c0,0.5-0.3,0.8-0.8,0.8s-0.8-0.4-0.8-0.8   c0-0.4,0.4-0.8,0.8-0.8S52.4,28.6,52.4,29L52.4,29z" fill="#FED208" fill-rule="evenodd"/><path clip-rule="evenodd" d="M52.4,32.2c0,0.5-0.3,0.8-0.8,0.8s-0.8-0.4-0.8-0.8   c0-0.4,0.4-0.8,0.8-0.8S52.4,31.8,52.4,32.2L52.4,32.2z" fill="#FED208" fill-rule="evenodd"/><path clip-rule="evenodd" d="M52.4,35.5c0,0.5-0.3,0.8-0.8,0.8s-0.8-0.4-0.8-0.8   c0-0.5,0.4-0.8,0.8-0.8S52.4,35,52.4,35.5L52.4,35.5z" fill="#FED208" fill-rule="evenodd"/><path clip-rule="evenodd" d="M52.4,38.7c0,0.4-0.3,0.8-0.8,0.8s-0.8-0.4-0.8-0.8   c0-0.5,0.4-0.8,0.8-0.8S52.4,38.2,52.4,38.7L52.4,38.7z" fill="#FED208" fill-rule="evenodd"/><path clip-rule="evenodd" d="M52.4,41.9c0,0.5-0.3,0.8-0.8,0.8s-0.8-0.4-0.8-0.8   c0-0.4,0.4-0.8,0.8-0.8S52.4,41.5,52.4,41.9L52.4,41.9z" fill="#FED208" fill-rule="evenodd"/><path clip-rule="evenodd" d="M52.4,45.1c0,0.5-0.3,0.8-0.8,0.8s-0.8-0.4-0.8-0.8   s0.4-0.8,0.8-0.8S52.4,44.7,52.4,45.1L52.4,45.1z" fill="#FED208" fill-rule="evenodd"/><path clip-rule="evenodd" d="M52.4,48.4c0,0.5-0.3,0.8-0.8,0.8s-0.8-0.3-0.8-0.8   c0-0.5,0.4-0.8,0.8-0.8S52.4,47.9,52.4,48.4L52.4,48.4z" fill="#FED208" fill-rule="evenodd"/><path clip-rule="evenodd" d="M52.4,51.6c0,0.5-0.3,0.8-0.8,0.8s-0.8-0.4-0.8-0.8   c0-0.5,0.4-0.8,0.8-0.8S52.4,51.1,52.4,51.6L52.4,51.6z" fill="#FED208" fill-rule="evenodd"/><path clip-rule="evenodd" d="M52.4,54.9c0,0.5-0.3,0.8-0.8,0.8s-0.8-0.3-0.8-0.8   c0-0.5,0.4-0.8,0.8-0.8S52.4,54.4,52.4,54.9L52.4,54.9z" fill="#FED208" fill-rule="evenodd"/><path clip-rule="evenodd" d="M52.4,58.1c0,0.4-0.3,0.8-0.8,0.8s-0.8-0.4-0.8-0.8   c0-0.5,0.4-0.8,0.8-0.8S52.4,57.6,52.4,58.1L52.4,58.1z" fill="#FED208" fill-rule="evenodd"/><path clip-rule="evenodd" d="M52.4,61.3c0,0.5-0.3,0.8-0.8,0.8s-0.8-0.4-0.8-0.8   c0-0.4,0.4-0.8,0.8-0.8S52.4,60.9,52.4,61.3L52.4,61.3z" fill="#FED208" fill-rule="evenodd"/><path clip-rule="evenodd" d="M52.4,64.5c0,0.5-0.3,0.8-0.8,0.8s-0.8-0.4-0.8-0.8   c0-0.4,0.4-0.8,0.8-0.8S52.4,64.1,52.4,64.5L52.4,64.5z" fill="#FED208" fill-rule="evenodd"/><path clip-rule="evenodd" d="M52.4,67.8c0,0.5-0.3,0.8-0.8,0.8s-0.8-0.4-0.8-0.8   s0.4-0.8,0.8-0.8S52.4,67.3,52.4,67.8L52.4,67.8z" fill="#FED208" fill-rule="evenodd"/><path clip-rule="evenodd" d="M52.4,71c0,0.5-0.3,0.8-0.8,0.8s-0.8-0.3-0.8-0.8s0.4-0.8,0.8-0.8   S52.4,70.5,52.4,71L52.4,71z" fill="#FED208" fill-rule="evenodd"/><path clip-rule="evenodd" d="M52.4,74.3c0,0.4-0.3,0.8-0.8,0.8s-0.8-0.4-0.8-0.8   c0-0.5,0.4-0.8,0.8-0.8S52.4,73.8,52.4,74.3L52.4,74.3z" fill="#FED208" fill-rule="evenodd"/><path clip-rule="evenodd" d="M52.4,77.4c0,0.5-0.3,0.8-0.8,0.8s-0.8-0.4-0.8-0.8   s0.4-0.8,0.8-0.8S52.4,77,52.4,77.4L52.4,77.4z" fill="#FED208" fill-rule="evenodd"/><path clip-rule="evenodd" d="M52.4,80.7c0,0.5-0.3,0.8-0.8,0.8s-0.8-0.3-0.8-0.8   s0.4-0.8,0.8-0.8S52.4,80.2,52.4,80.7L52.4,80.7z" fill="#FED208" fill-rule="evenodd"/><path clip-rule="evenodd" d="M52.4,83.9c0,0.4-0.3,0.8-0.8,0.8s-0.8-0.4-0.8-0.8   c0-0.5,0.4-0.8,0.8-0.8S52.4,83.5,52.4,83.9L52.4,83.9z" fill="#FED208" fill-rule="evenodd"/><path clip-rule="evenodd" d="M55.7,12.8c0,0.5-0.3,0.8-0.8,0.8S54,13.3,54,12.8   c0-0.5,0.4-0.8,0.8-0.8S55.7,12.4,55.7,12.8L55.7,12.8z" fill="#FED208" fill-rule="evenodd"/><path clip-rule="evenodd" d="M55.7,16.1c0,0.5-0.3,0.8-0.8,0.8S54,16.5,54,16.1   c0-0.5,0.4-0.8,0.8-0.8S55.7,15.6,55.7,16.1L55.7,16.1z" fill="#FED208" fill-rule="evenodd"/><path clip-rule="evenodd" d="M55.7,19.3c0,0.4-0.3,0.8-0.8,0.8S54,19.7,54,19.3   c0-0.5,0.4-0.8,0.8-0.8S55.7,18.9,55.7,19.3L55.7,19.3z" fill="#FED208" fill-rule="evenodd"/><path clip-rule="evenodd" d="M55.7,22.5c0,0.5-0.3,0.8-0.8,0.8S54,23,54,22.5   c0-0.4,0.4-0.8,0.8-0.8S55.7,22.1,55.7,22.5L55.7,22.5z" fill="#FED208" fill-rule="evenodd"/><path clip-rule="evenodd" d="M55.7,25.8c0,0.4-0.3,0.8-0.8,0.8S54,26.2,54,25.8   c0-0.5,0.4-0.8,0.8-0.8S55.7,25.3,55.7,25.8L55.7,25.8z" fill="#FED208" fill-rule="evenodd"/><path clip-rule="evenodd" d="M55.7,29c0,0.5-0.3,0.8-0.8,0.8S54,29.5,54,29   c0-0.4,0.4-0.8,0.8-0.8S55.7,28.6,55.7,29L55.7,29z" fill="#FED208" fill-rule="evenodd"/><path clip-rule="evenodd" d="M55.7,32.2c0,0.5-0.3,0.8-0.8,0.8S54,32.7,54,32.2   c0-0.4,0.4-0.8,0.8-0.8S55.7,31.8,55.7,32.2L55.7,32.2z" fill="#FED208" fill-rule="evenodd"/><path clip-rule="evenodd" d="M55.7,35.5c0,0.5-0.3,0.8-0.8,0.8S54,35.9,54,35.5   c0-0.5,0.4-0.8,0.8-0.8S55.7,35,55.7,35.5L55.7,35.5z" fill="#FED208" fill-rule="evenodd"/><path clip-rule="evenodd" d="M55.7,38.7c0,0.4-0.3,0.8-0.8,0.8S54,39.1,54,38.7   c0-0.5,0.4-0.8,0.8-0.8S55.7,38.2,55.7,38.7L55.7,38.7z" fill="#FED208" fill-rule="evenodd"/><path clip-rule="evenodd" d="M55.7,41.9c0,0.5-0.3,0.8-0.8,0.8S54,42.4,54,41.9   c0-0.4,0.4-0.8,0.8-0.8S55.7,41.5,55.7,41.9L55.7,41.9z" fill="#FED208" fill-rule="evenodd"/><path clip-rule="evenodd" d="M55.7,45.1c0,0.5-0.3,0.8-0.8,0.8S54,45.6,54,45.1   s0.4-0.8,0.8-0.8S55.7,44.7,55.7,45.1L55.7,45.1z" fill="#FED208" fill-rule="evenodd"/><path clip-rule="evenodd" d="M55.7,48.4c0,0.5-0.3,0.8-0.8,0.8S54,48.9,54,48.4   c0-0.5,0.4-0.8,0.8-0.8S55.7,47.9,55.7,48.4L55.7,48.4z" fill="#FED208" fill-rule="evenodd"/><path clip-rule="evenodd" d="M55.7,51.6c0,0.5-0.3,0.8-0.8,0.8S54,52.1,54,51.6   c0-0.5,0.4-0.8,0.8-0.8S55.7,51.1,55.7,51.6L55.7,51.6z" fill="#FED208" fill-rule="evenodd"/><path clip-rule="evenodd" d="M55.7,54.9c0,0.5-0.3,0.8-0.8,0.8S54,55.3,54,54.9   c0-0.5,0.4-0.8,0.8-0.8S55.7,54.4,55.7,54.9L55.7,54.9z" fill="#FED208" fill-rule="evenodd"/><path clip-rule="evenodd" d="M55.7,58.1c0,0.4-0.3,0.8-0.8,0.8S54,58.5,54,58.1   c0-0.5,0.4-0.8,0.8-0.8S55.7,57.6,55.7,58.1L55.7,58.1z" fill="#FED208" fill-rule="evenodd"/><path clip-rule="evenodd" d="M55.7,61.3c0,0.5-0.3,0.8-0.8,0.8S54,61.8,54,61.3   c0-0.4,0.4-0.8,0.8-0.8S55.7,60.9,55.7,61.3L55.7,61.3z" fill="#FED208" fill-rule="evenodd"/><path clip-rule="evenodd" d="M55.7,64.5c0,0.5-0.3,0.8-0.8,0.8S54,65,54,64.5   c0-0.4,0.4-0.8,0.8-0.8S55.7,64.1,55.7,64.5L55.7,64.5z" fill="#FED208" fill-rule="evenodd"/><path clip-rule="evenodd" d="M55.7,67.8c0,0.5-0.3,0.8-0.8,0.8S54,68.2,54,67.8   s0.4-0.8,0.8-0.8S55.7,67.3,55.7,67.8L55.7,67.8z" fill="#FED208" fill-rule="evenodd"/><path clip-rule="evenodd" d="M55.7,71c0,0.5-0.3,0.8-0.8,0.8S54,71.5,54,71s0.4-0.8,0.8-0.8   S55.7,70.5,55.7,71L55.7,71z" fill="#FED208" fill-rule="evenodd"/><path clip-rule="evenodd" d="M55.7,74.3c0,0.4-0.3,0.8-0.8,0.8S54,74.7,54,74.3   c0-0.5,0.4-0.8,0.8-0.8S55.7,73.8,55.7,74.3L55.7,74.3z" fill="#FED208" fill-rule="evenodd"/><path clip-rule="evenodd" d="M55.7,77.4c0,0.5-0.3,0.8-0.8,0.8S54,77.9,54,77.4   s0.4-0.8,0.8-0.8S55.7,77,55.7,77.4L55.7,77.4z" fill="#FED208" fill-rule="evenodd"/><path clip-rule="evenodd" d="M55.7,80.7c0,0.5-0.3,0.8-0.8,0.8S54,81.1,54,80.7   s0.4-0.8,0.8-0.8S55.7,80.2,55.7,80.7L55.7,80.7z" fill="#FED208" fill-rule="evenodd"/><path clip-rule="evenodd" d="M55.7,83.9c0,0.4-0.3,0.8-0.8,0.8S54,84.3,54,83.9   c0-0.5,0.4-0.8,0.8-0.8S55.7,83.5,55.7,83.9L55.7,83.9z" fill="#FED208" fill-rule="evenodd"/><path clip-rule="evenodd" d="M58.9,12.8c0,0.5-0.3,0.8-0.8,0.8c-0.5,0-0.8-0.4-0.8-0.8   c0-0.5,0.4-0.8,0.8-0.8C58.5,12,58.9,12.4,58.9,12.8L58.9,12.8z" fill="#FED208" fill-rule="evenodd"/><path clip-rule="evenodd" d="M58.9,16.1c0,0.5-0.3,0.8-0.8,0.8c-0.5,0-0.8-0.3-0.8-0.8   c0-0.5,0.4-0.8,0.8-0.8C58.5,15.3,58.9,15.6,58.9,16.1L58.9,16.1z" fill="#FED208" fill-rule="evenodd"/><path clip-rule="evenodd" d="M58.9,19.3c0,0.4-0.3,0.8-0.8,0.8c-0.5,0-0.8-0.4-0.8-0.8   c0-0.5,0.4-0.8,0.8-0.8C58.5,18.5,58.9,18.9,58.9,19.3L58.9,19.3z" fill="#FED208" fill-rule="evenodd"/><path clip-rule="evenodd" d="M58.9,22.5c0,0.5-0.3,0.8-0.8,0.8c-0.5,0-0.8-0.4-0.8-0.8   c0-0.4,0.4-0.8,0.8-0.8C58.5,21.7,58.9,22.1,58.9,22.5L58.9,22.5z" fill="#FED208" fill-rule="evenodd"/><path clip-rule="evenodd" d="M58.9,25.8c0,0.4-0.3,0.8-0.8,0.8c-0.5,0-0.8-0.4-0.8-0.8   c0-0.5,0.4-0.8,0.8-0.8C58.5,24.9,58.9,25.3,58.9,25.8L58.9,25.8z" fill="#FED208" fill-rule="evenodd"/><path clip-rule="evenodd" d="M58.9,29c0,0.5-0.3,0.8-0.8,0.8c-0.5,0-0.8-0.4-0.8-0.8   c0-0.4,0.4-0.8,0.8-0.8C58.5,28.2,58.9,28.6,58.9,29L58.9,29z" fill="#FED208" fill-rule="evenodd"/><path clip-rule="evenodd" d="M58.9,32.2c0,0.5-0.3,0.8-0.8,0.8c-0.5,0-0.8-0.4-0.8-0.8   c0-0.4,0.4-0.8,0.8-0.8C58.5,31.4,58.9,31.8,58.9,32.2L58.9,32.2z" fill="#FED208" fill-rule="evenodd"/><path clip-rule="evenodd" d="M58.9,35.5c0,0.5-0.3,0.8-0.8,0.8c-0.5,0-0.8-0.4-0.8-0.8   c0-0.5,0.4-0.8,0.8-0.8C58.5,34.7,58.9,35,58.9,35.5L58.9,35.5z" fill="#FED208" fill-rule="evenodd"/><path clip-rule="evenodd" d="M58.9,38.7c0,0.4-0.3,0.8-0.8,0.8c-0.5,0-0.8-0.4-0.8-0.8   c0-0.5,0.4-0.8,0.8-0.8C58.5,37.9,58.9,38.2,58.9,38.7L58.9,38.7z" fill="#FED208" fill-rule="evenodd"/><path clip-rule="evenodd" d="M58.9,41.9c0,0.5-0.3,0.8-0.8,0.8c-0.5,0-0.8-0.4-0.8-0.8   c0-0.4,0.4-0.8,0.8-0.8C58.5,41.1,58.9,41.5,58.9,41.9L58.9,41.9z" fill="#FED208" fill-rule="evenodd"/><path clip-rule="evenodd" d="M58.9,45.1c0,0.5-0.3,0.8-0.8,0.8c-0.5,0-0.8-0.4-0.8-0.8   s0.4-0.8,0.8-0.8C58.5,44.3,58.9,44.7,58.9,45.1L58.9,45.1z" fill="#FED208" fill-rule="evenodd"/><path clip-rule="evenodd" d="M58.9,48.4c0,0.5-0.3,0.8-0.8,0.8c-0.5,0-0.8-0.3-0.8-0.8   c0-0.5,0.4-0.8,0.8-0.8C58.5,47.6,58.9,47.9,58.9,48.4L58.9,48.4z" fill="#FED208" fill-rule="evenodd"/><path clip-rule="evenodd" d="M58.9,51.6c0,0.5-0.3,0.8-0.8,0.8c-0.5,0-0.8-0.4-0.8-0.8   c0-0.5,0.4-0.8,0.8-0.8C58.5,50.8,58.9,51.1,58.9,51.6L58.9,51.6z" fill="#FED208" fill-rule="evenodd"/><path clip-rule="evenodd" d="M58.9,54.9c0,0.5-0.3,0.8-0.8,0.8c-0.5,0-0.8-0.3-0.8-0.8   c0-0.5,0.4-0.8,0.8-0.8C58.5,54,58.9,54.4,58.9,54.9L58.9,54.9z" fill="#FED208" fill-rule="evenodd"/><path clip-rule="evenodd" d="M58.9,58.1c0,0.4-0.3,0.8-0.8,0.8c-0.5,0-0.8-0.4-0.8-0.8   c0-0.5,0.4-0.8,0.8-0.8C58.5,57.3,58.9,57.6,58.9,58.1L58.9,58.1z" fill="#FED208" fill-rule="evenodd"/><path clip-rule="evenodd" d="M58.9,61.3c0,0.5-0.3,0.8-0.8,0.8c-0.5,0-0.8-0.4-0.8-0.8   c0-0.4,0.4-0.8,0.8-0.8C58.5,60.5,58.9,60.9,58.9,61.3L58.9,61.3z" fill="#FED208" fill-rule="evenodd"/><path clip-rule="evenodd" d="M58.9,64.5c0,0.5-0.3,0.8-0.8,0.8c-0.5,0-0.8-0.4-0.8-0.8   c0-0.4,0.4-0.8,0.8-0.8C58.5,63.7,58.9,64.1,58.9,64.5L58.9,64.5z" fill="#FED208" fill-rule="evenodd"/><path clip-rule="evenodd" d="M58.9,67.8c0,0.5-0.3,0.8-0.8,0.8c-0.5,0-0.8-0.4-0.8-0.8   s0.4-0.8,0.8-0.8C58.5,67,58.9,67.3,58.9,67.8L58.9,67.8z" fill="#FED208" fill-rule="evenodd"/><path clip-rule="evenodd" d="M58.9,71c0,0.5-0.3,0.8-0.8,0.8c-0.5,0-0.8-0.3-0.8-0.8   s0.4-0.8,0.8-0.8C58.5,70.2,58.9,70.5,58.9,71L58.9,71z" fill="#FED208" fill-rule="evenodd"/><path clip-rule="evenodd" d="M58.9,74.3c0,0.4-0.3,0.8-0.8,0.8c-0.5,0-0.8-0.4-0.8-0.8   c0-0.5,0.4-0.8,0.8-0.8C58.5,73.4,58.9,73.8,58.9,74.3L58.9,74.3z" fill="#FED208" fill-rule="evenodd"/><path clip-rule="evenodd" d="M58.9,77.4c0,0.5-0.3,0.8-0.8,0.8c-0.5,0-0.8-0.4-0.8-0.8   s0.4-0.8,0.8-0.8C58.5,76.6,58.9,77,58.9,77.4L58.9,77.4z" fill="#FED208" fill-rule="evenodd"/><path clip-rule="evenodd" d="M58.9,80.7c0,0.5-0.3,0.8-0.8,0.8c-0.5,0-0.8-0.3-0.8-0.8   s0.4-0.8,0.8-0.8C58.5,79.9,58.9,80.2,58.9,80.7L58.9,80.7z" fill="#FED208" fill-rule="evenodd"/><path clip-rule="evenodd" d="M58.9,83.9c0,0.4-0.3,0.8-0.8,0.8c-0.5,0-0.8-0.4-0.8-0.8   c0-0.5,0.4-0.8,0.8-0.8C58.5,83.1,58.9,83.5,58.9,83.9L58.9,83.9z" fill="#FED208" fill-rule="evenodd"/><path clip-rule="evenodd" d="M62.1,12.8c0,0.5-0.3,0.8-0.8,0.8c-0.5,0-0.8-0.4-0.8-0.8   c0-0.5,0.4-0.8,0.8-0.8C61.8,12,62.1,12.4,62.1,12.8L62.1,12.8z" fill="#FED208" fill-rule="evenodd"/><path clip-rule="evenodd" d="M62.1,16.1c0,0.5-0.3,0.8-0.8,0.8c-0.5,0-0.8-0.3-0.8-0.8   c0-0.5,0.4-0.8,0.8-0.8C61.8,15.3,62.1,15.6,62.1,16.1L62.1,16.1z" fill="#FED208" fill-rule="evenodd"/><path clip-rule="evenodd" d="M62.1,19.3c0,0.4-0.3,0.8-0.8,0.8c-0.5,0-0.8-0.4-0.8-0.8   c0-0.5,0.4-0.8,0.8-0.8C61.8,18.5,62.1,18.9,62.1,19.3L62.1,19.3z" fill="#FED208" fill-rule="evenodd"/><path clip-rule="evenodd" d="M62.1,22.5c0,0.5-0.3,0.8-0.8,0.8c-0.5,0-0.8-0.4-0.8-0.8   c0-0.4,0.4-0.8,0.8-0.8C61.8,21.7,62.1,22.1,62.1,22.5L62.1,22.5z" fill="#FED208" fill-rule="evenodd"/><path clip-rule="evenodd" d="M62.1,25.8c0,0.4-0.3,0.8-0.8,0.8c-0.5,0-0.8-0.4-0.8-0.8   c0-0.5,0.4-0.8,0.8-0.8C61.8,24.9,62.1,25.3,62.1,25.8L62.1,25.8z" fill="#FED208" fill-rule="evenodd"/><path clip-rule="evenodd" d="M62.1,29c0,0.5-0.3,0.8-0.8,0.8c-0.5,0-0.8-0.4-0.8-0.8   c0-0.4,0.4-0.8,0.8-0.8C61.8,28.2,62.1,28.6,62.1,29L62.1,29z" fill="#FED208" fill-rule="evenodd"/><path clip-rule="evenodd" d="M62.1,32.2c0,0.5-0.3,0.8-0.8,0.8c-0.5,0-0.8-0.4-0.8-0.8   c0-0.4,0.4-0.8,0.8-0.8C61.8,31.4,62.1,31.8,62.1,32.2L62.1,32.2z" fill="#FED208" fill-rule="evenodd"/><path clip-rule="evenodd" d="M62.1,35.5c0,0.5-0.3,0.8-0.8,0.8c-0.5,0-0.8-0.4-0.8-0.8   c0-0.5,0.4-0.8,0.8-0.8C61.8,34.7,62.1,35,62.1,35.5L62.1,35.5z" fill="#FED208" fill-rule="evenodd"/><path clip-rule="evenodd" d="M62.1,38.7c0,0.4-0.3,0.8-0.8,0.8c-0.5,0-0.8-0.4-0.8-0.8   c0-0.5,0.4-0.8,0.8-0.8C61.8,37.9,62.1,38.2,62.1,38.7L62.1,38.7z" fill="#FED208" fill-rule="evenodd"/><path clip-rule="evenodd" d="M62.1,41.9c0,0.5-0.3,0.8-0.8,0.8c-0.5,0-0.8-0.4-0.8-0.8   c0-0.4,0.4-0.8,0.8-0.8C61.8,41.1,62.1,41.5,62.1,41.9L62.1,41.9z" fill="#FED208" fill-rule="evenodd"/><path clip-rule="evenodd" d="M62.1,45.1c0,0.5-0.3,0.8-0.8,0.8c-0.5,0-0.8-0.4-0.8-0.8   s0.4-0.8,0.8-0.8C61.8,44.3,62.1,44.7,62.1,45.1L62.1,45.1z" fill="#FED208" fill-rule="evenodd"/><path clip-rule="evenodd" d="M62.1,48.4c0,0.5-0.3,0.8-0.8,0.8c-0.5,0-0.8-0.3-0.8-0.8   c0-0.5,0.4-0.8,0.8-0.8C61.8,47.6,62.1,47.9,62.1,48.4L62.1,48.4z" fill="#FED208" fill-rule="evenodd"/><path clip-rule="evenodd" d="M62.1,51.6c0,0.5-0.3,0.8-0.8,0.8c-0.5,0-0.8-0.4-0.8-0.8   c0-0.5,0.4-0.8,0.8-0.8C61.8,50.8,62.1,51.1,62.1,51.6L62.1,51.6z" fill="#FED208" fill-rule="evenodd"/><path clip-rule="evenodd" d="M62.1,54.9c0,0.5-0.3,0.8-0.8,0.8c-0.5,0-0.8-0.3-0.8-0.8   c0-0.5,0.4-0.8,0.8-0.8C61.8,54,62.1,54.4,62.1,54.9L62.1,54.9z" fill="#FED208" fill-rule="evenodd"/><path clip-rule="evenodd" d="M62.1,58.1c0,0.4-0.3,0.8-0.8,0.8c-0.5,0-0.8-0.4-0.8-0.8   c0-0.5,0.4-0.8,0.8-0.8C61.8,57.3,62.1,57.6,62.1,58.1L62.1,58.1z" fill="#FED208" fill-rule="evenodd"/><path clip-rule="evenodd" d="M62.1,61.3c0,0.5-0.3,0.8-0.8,0.8c-0.5,0-0.8-0.4-0.8-0.8   c0-0.4,0.4-0.8,0.8-0.8C61.8,60.5,62.1,60.9,62.1,61.3L62.1,61.3z" fill="#FED208" fill-rule="evenodd"/><path clip-rule="evenodd" d="M62.1,64.5c0,0.5-0.3,0.8-0.8,0.8c-0.5,0-0.8-0.4-0.8-0.8   c0-0.4,0.4-0.8,0.8-0.8C61.8,63.7,62.1,64.1,62.1,64.5L62.1,64.5z" fill="#FED208" fill-rule="evenodd"/><path clip-rule="evenodd" d="M62.1,67.8c0,0.5-0.3,0.8-0.8,0.8c-0.5,0-0.8-0.4-0.8-0.8   s0.4-0.8,0.8-0.8C61.8,67,62.1,67.3,62.1,67.8L62.1,67.8z" fill="#FED208" fill-rule="evenodd"/><path clip-rule="evenodd" d="M62.1,71c0,0.5-0.3,0.8-0.8,0.8c-0.5,0-0.8-0.3-0.8-0.8   s0.4-0.8,0.8-0.8C61.8,70.2,62.1,70.5,62.1,71L62.1,71z" fill="#FED208" fill-rule="evenodd"/><path clip-rule="evenodd" d="M62.1,74.3c0,0.4-0.3,0.8-0.8,0.8c-0.5,0-0.8-0.4-0.8-0.8   c0-0.5,0.4-0.8,0.8-0.8C61.8,73.4,62.1,73.8,62.1,74.3L62.1,74.3z" fill="#FED208" fill-rule="evenodd"/><path clip-rule="evenodd" d="M62.1,77.4c0,0.5-0.3,0.8-0.8,0.8c-0.5,0-0.8-0.4-0.8-0.8   s0.4-0.8,0.8-0.8C61.8,76.6,62.1,77,62.1,77.4L62.1,77.4z" fill="#FED208" fill-rule="evenodd"/><path clip-rule="evenodd" d="M62.1,80.7c0,0.5-0.3,0.8-0.8,0.8c-0.5,0-0.8-0.3-0.8-0.8   s0.4-0.8,0.8-0.8C61.8,79.9,62.1,80.2,62.1,80.7L62.1,80.7z" fill="#FED208" fill-rule="evenodd"/><path clip-rule="evenodd" d="M62.1,83.9c0,0.4-0.3,0.8-0.8,0.8c-0.5,0-0.8-0.4-0.8-0.8   c0-0.5,0.4-0.8,0.8-0.8C61.8,83.1,62.1,83.5,62.1,83.9L62.1,83.9z" fill="#FED208" fill-rule="evenodd"/><path clip-rule="evenodd" d="M62.1,87.1c0,0.5-0.3,0.8-0.8,0.8c-0.5,0-0.8-0.4-0.8-0.8   c0-0.4,0.4-0.8,0.8-0.8C61.8,86.4,62.1,86.7,62.1,87.1L62.1,87.1z" fill="#FED208" fill-rule="evenodd"/><path clip-rule="evenodd" d="M65.3,16.1c0,0.5-0.4,0.8-0.8,0.8c-0.5,0-0.8-0.3-0.8-0.8   c0-0.5,0.4-0.8,0.8-0.8C65,15.3,65.3,15.6,65.3,16.1L65.3,16.1z" fill="#DD2726" fill-rule="evenodd"/><path clip-rule="evenodd" d="M65.3,19.3c0,0.4-0.4,0.8-0.8,0.8c-0.5,0-0.8-0.4-0.8-0.8   c0-0.5,0.4-0.8,0.8-0.8C65,18.5,65.3,18.9,65.3,19.3L65.3,19.3z" fill="#DD2726" fill-rule="evenodd"/><path clip-rule="evenodd" d="M65.3,22.5c0,0.5-0.4,0.8-0.8,0.8c-0.5,0-0.8-0.4-0.8-0.8   c0-0.4,0.4-0.8,0.8-0.8C65,21.7,65.3,22.1,65.3,22.5L65.3,22.5z" fill="#DD2726" fill-rule="evenodd"/><path clip-rule="evenodd" d="M65.3,25.8c0,0.4-0.4,0.8-0.8,0.8c-0.5,0-0.8-0.4-0.8-0.8   c0-0.5,0.4-0.8,0.8-0.8C65,24.9,65.3,25.3,65.3,25.8L65.3,25.8z" fill="#DD2726" fill-rule="evenodd"/><path clip-rule="evenodd" d="M65.3,29c0,0.5-0.4,0.8-0.8,0.8c-0.5,0-0.8-0.4-0.8-0.8   c0-0.4,0.4-0.8,0.8-0.8C65,28.2,65.3,28.6,65.3,29L65.3,29z" fill="#DD2726" fill-rule="evenodd"/><path clip-rule="evenodd" d="M65.3,32.2c0,0.5-0.4,0.8-0.8,0.8c-0.5,0-0.8-0.4-0.8-0.8   c0-0.4,0.4-0.8,0.8-0.8C65,31.4,65.3,31.8,65.3,32.2L65.3,32.2z" fill="#DD2726" fill-rule="evenodd"/><path clip-rule="evenodd" d="M65.3,35.5c0,0.5-0.4,0.8-0.8,0.8c-0.5,0-0.8-0.4-0.8-0.8   c0-0.5,0.4-0.8,0.8-0.8C65,34.7,65.3,35,65.3,35.5L65.3,35.5z" fill="#DD2726" fill-rule="evenodd"/><path clip-rule="evenodd" d="M65.3,38.7c0,0.4-0.4,0.8-0.8,0.8c-0.5,0-0.8-0.4-0.8-0.8   c0-0.5,0.4-0.8,0.8-0.8C65,37.9,65.3,38.2,65.3,38.7L65.3,38.7z" fill="#DD2726" fill-rule="evenodd"/><path clip-rule="evenodd" d="M65.3,41.9c0,0.5-0.4,0.8-0.8,0.8c-0.5,0-0.8-0.4-0.8-0.8   c0-0.4,0.4-0.8,0.8-0.8C65,41.1,65.3,41.5,65.3,41.9L65.3,41.9z" fill="#DD2726" fill-rule="evenodd"/><path clip-rule="evenodd" d="M65.3,45.1c0,0.5-0.4,0.8-0.8,0.8c-0.5,0-0.8-0.4-0.8-0.8   s0.4-0.8,0.8-0.8C65,44.3,65.3,44.7,65.3,45.1L65.3,45.1z" fill="#DD2726" fill-rule="evenodd"/><path clip-rule="evenodd" d="M65.3,48.4c0,0.5-0.4,0.8-0.8,0.8c-0.5,0-0.8-0.3-0.8-0.8   c0-0.5,0.4-0.8,0.8-0.8C65,47.6,65.3,47.9,65.3,48.4L65.3,48.4z" fill="#DD2726" fill-rule="evenodd"/><path clip-rule="evenodd" d="M65.3,51.6c0,0.5-0.4,0.8-0.8,0.8c-0.5,0-0.8-0.4-0.8-0.8   c0-0.5,0.4-0.8,0.8-0.8C65,50.8,65.3,51.1,65.3,51.6L65.3,51.6z" fill="#DD2726" fill-rule="evenodd"/><path clip-rule="evenodd" d="M65.3,54.9c0,0.5-0.4,0.8-0.8,0.8c-0.5,0-0.8-0.3-0.8-0.8   c0-0.5,0.4-0.8,0.8-0.8C65,54,65.3,54.4,65.3,54.9L65.3,54.9z" fill="#DD2726" fill-rule="evenodd"/><path clip-rule="evenodd" d="M65.3,58.1c0,0.4-0.4,0.8-0.8,0.8c-0.5,0-0.8-0.4-0.8-0.8   c0-0.5,0.4-0.8,0.8-0.8C65,57.3,65.3,57.6,65.3,58.1L65.3,58.1z" fill="#DD2726" fill-rule="evenodd"/><path clip-rule="evenodd" d="M65.3,61.3c0,0.5-0.4,0.8-0.8,0.8c-0.5,0-0.8-0.4-0.8-0.8   c0-0.4,0.4-0.8,0.8-0.8C65,60.5,65.3,60.9,65.3,61.3L65.3,61.3z" fill="#DD2726" fill-rule="evenodd"/><path clip-rule="evenodd" d="M65.3,64.5c0,0.5-0.4,0.8-0.8,0.8c-0.5,0-0.8-0.4-0.8-0.8   c0-0.4,0.4-0.8,0.8-0.8C65,63.7,65.3,64.1,65.3,64.5L65.3,64.5z" fill="#DD2726" fill-rule="evenodd"/><path clip-rule="evenodd" d="M65.3,67.8c0,0.5-0.4,0.8-0.8,0.8c-0.5,0-0.8-0.4-0.8-0.8   s0.4-0.8,0.8-0.8C65,67,65.3,67.3,65.3,67.8L65.3,67.8z" fill="#DD2726" fill-rule="evenodd"/><path clip-rule="evenodd" d="M65.3,71c0,0.5-0.4,0.8-0.8,0.8c-0.5,0-0.8-0.3-0.8-0.8   s0.4-0.8,0.8-0.8C65,70.2,65.3,70.5,65.3,71L65.3,71z" fill="#DD2726" fill-rule="evenodd"/><path clip-rule="evenodd" d="M65.3,74.3c0,0.4-0.4,0.8-0.8,0.8c-0.5,0-0.8-0.4-0.8-0.8   c0-0.5,0.4-0.8,0.8-0.8C65,73.4,65.3,73.8,65.3,74.3L65.3,74.3z" fill="#DD2726" fill-rule="evenodd"/><path clip-rule="evenodd" d="M65.3,77.4c0,0.5-0.4,0.8-0.8,0.8c-0.5,0-0.8-0.4-0.8-0.8   s0.4-0.8,0.8-0.8C65,76.6,65.3,77,65.3,77.4L65.3,77.4z" fill="#DD2726" fill-rule="evenodd"/><path clip-rule="evenodd" d="M65.3,80.7c0,0.5-0.4,0.8-0.8,0.8c-0.5,0-0.8-0.3-0.8-0.8   s0.4-0.8,0.8-0.8C65,79.9,65.3,80.2,65.3,80.7L65.3,80.7z" fill="#DD2726" fill-rule="evenodd"/><path clip-rule="evenodd" d="M65.3,83.9c0,0.4-0.4,0.8-0.8,0.8c-0.5,0-0.8-0.4-0.8-0.8   c0-0.5,0.4-0.8,0.8-0.8C65,83.1,65.3,83.5,65.3,83.9L65.3,83.9z" fill="#DD2726" fill-rule="evenodd"/><path clip-rule="evenodd" d="M65.3,87.1c0,0.5-0.4,0.8-0.8,0.8c-0.5,0-0.8-0.4-0.8-0.8   c0-0.4,0.4-0.8,0.8-0.8C65,86.4,65.3,86.7,65.3,87.1L65.3,87.1z" fill="#DD2726" fill-rule="evenodd"/><path clip-rule="evenodd" d="M68.6,16.1c0,0.5-0.4,0.8-0.8,0.8c-0.5,0-0.8-0.3-0.8-0.8   c0-0.5,0.4-0.8,0.8-0.8C68.2,15.3,68.6,15.6,68.6,16.1L68.6,16.1z" fill="#DD2726" fill-rule="evenodd"/><path clip-rule="evenodd" d="M68.6,19.3c0,0.4-0.4,0.8-0.8,0.8c-0.5,0-0.8-0.4-0.8-0.8   c0-0.5,0.4-0.8,0.8-0.8C68.2,18.5,68.6,18.9,68.6,19.3L68.6,19.3z" fill="#DD2726" fill-rule="evenodd"/><path clip-rule="evenodd" d="M68.6,22.5c0,0.5-0.4,0.8-0.8,0.8c-0.5,0-0.8-0.4-0.8-0.8   c0-0.4,0.4-0.8,0.8-0.8C68.2,21.7,68.6,22.1,68.6,22.5L68.6,22.5z" fill="#DD2726" fill-rule="evenodd"/><path clip-rule="evenodd" d="M68.6,25.8c0,0.4-0.4,0.8-0.8,0.8c-0.5,0-0.8-0.4-0.8-0.8   c0-0.5,0.4-0.8,0.8-0.8C68.2,24.9,68.6,25.3,68.6,25.8L68.6,25.8z" fill="#DD2726" fill-rule="evenodd"/><path clip-rule="evenodd" d="M68.6,29c0,0.5-0.4,0.8-0.8,0.8c-0.5,0-0.8-0.4-0.8-0.8   c0-0.4,0.4-0.8,0.8-0.8C68.2,28.2,68.6,28.6,68.6,29L68.6,29z" fill="#DD2726" fill-rule="evenodd"/><path clip-rule="evenodd" d="M68.6,32.2c0,0.5-0.4,0.8-0.8,0.8c-0.5,0-0.8-0.4-0.8-0.8   c0-0.4,0.4-0.8,0.8-0.8C68.2,31.4,68.6,31.8,68.6,32.2L68.6,32.2z" fill="#DD2726" fill-rule="evenodd"/><path clip-rule="evenodd" d="M68.6,35.5c0,0.5-0.4,0.8-0.8,0.8c-0.5,0-0.8-0.4-0.8-0.8   c0-0.5,0.4-0.8,0.8-0.8C68.2,34.7,68.6,35,68.6,35.5L68.6,35.5z" fill="#DD2726" fill-rule="evenodd"/><path clip-rule="evenodd" d="M68.6,38.7c0,0.4-0.4,0.8-0.8,0.8c-0.5,0-0.8-0.4-0.8-0.8   c0-0.5,0.4-0.8,0.8-0.8C68.2,37.9,68.6,38.2,68.6,38.7L68.6,38.7z" fill="#DD2726" fill-rule="evenodd"/><path clip-rule="evenodd" d="M68.6,41.9c0,0.5-0.4,0.8-0.8,0.8c-0.5,0-0.8-0.4-0.8-0.8   c0-0.4,0.4-0.8,0.8-0.8C68.2,41.1,68.6,41.5,68.6,41.9L68.6,41.9z" fill="#DD2726" fill-rule="evenodd"/><path clip-rule="evenodd" d="M68.6,45.1c0,0.5-0.4,0.8-0.8,0.8c-0.5,0-0.8-0.4-0.8-0.8   s0.4-0.8,0.8-0.8C68.2,44.3,68.6,44.7,68.6,45.1L68.6,45.1z" fill="#DD2726" fill-rule="evenodd"/><path clip-rule="evenodd" d="M68.6,48.4c0,0.5-0.4,0.8-0.8,0.8c-0.5,0-0.8-0.3-0.8-0.8   c0-0.5,0.4-0.8,0.8-0.8C68.2,47.6,68.6,47.9,68.6,48.4L68.6,48.4z" fill="#DD2726" fill-rule="evenodd"/><path clip-rule="evenodd" d="M68.6,51.6c0,0.5-0.4,0.8-0.8,0.8c-0.5,0-0.8-0.4-0.8-0.8   c0-0.5,0.4-0.8,0.8-0.8C68.2,50.8,68.6,51.1,68.6,51.6L68.6,51.6z" fill="#DD2726" fill-rule="evenodd"/><path clip-rule="evenodd" d="M68.6,54.9c0,0.5-0.4,0.8-0.8,0.8c-0.5,0-0.8-0.3-0.8-0.8   c0-0.5,0.4-0.8,0.8-0.8C68.2,54,68.6,54.4,68.6,54.9L68.6,54.9z" fill="#DD2726" fill-rule="evenodd"/><path clip-rule="evenodd" d="M68.6,58.1c0,0.4-0.4,0.8-0.8,0.8c-0.5,0-0.8-0.4-0.8-0.8   c0-0.5,0.4-0.8,0.8-0.8C68.2,57.3,68.6,57.6,68.6,58.1L68.6,58.1z" fill="#DD2726" fill-rule="evenodd"/><path clip-rule="evenodd" d="M68.6,61.3c0,0.5-0.4,0.8-0.8,0.8c-0.5,0-0.8-0.4-0.8-0.8   c0-0.4,0.4-0.8,0.8-0.8C68.2,60.5,68.6,60.9,68.6,61.3L68.6,61.3z" fill="#DD2726" fill-rule="evenodd"/><path clip-rule="evenodd" d="M68.6,64.5c0,0.5-0.4,0.8-0.8,0.8c-0.5,0-0.8-0.4-0.8-0.8   c0-0.4,0.4-0.8,0.8-0.8C68.2,63.7,68.6,64.1,68.6,64.5L68.6,64.5z" fill="#DD2726" fill-rule="evenodd"/><path clip-rule="evenodd" d="M68.6,67.8c0,0.5-0.4,0.8-0.8,0.8c-0.5,0-0.8-0.4-0.8-0.8   s0.4-0.8,0.8-0.8C68.2,67,68.6,67.3,68.6,67.8L68.6,67.8z" fill="#DD2726" fill-rule="evenodd"/><path clip-rule="evenodd" d="M68.6,71c0,0.5-0.4,0.8-0.8,0.8c-0.5,0-0.8-0.3-0.8-0.8   s0.4-0.8,0.8-0.8C68.2,70.2,68.6,70.5,68.6,71L68.6,71z" fill="#DD2726" fill-rule="evenodd"/><path clip-rule="evenodd" d="M68.6,74.3c0,0.4-0.4,0.8-0.8,0.8c-0.5,0-0.8-0.4-0.8-0.8   c0-0.5,0.4-0.8,0.8-0.8C68.2,73.4,68.6,73.8,68.6,74.3L68.6,74.3z" fill="#DD2726" fill-rule="evenodd"/><path clip-rule="evenodd" d="M68.6,77.4c0,0.5-0.4,0.8-0.8,0.8c-0.5,0-0.8-0.4-0.8-0.8   s0.4-0.8,0.8-0.8C68.2,76.6,68.6,77,68.6,77.4L68.6,77.4z" fill="#DD2726" fill-rule="evenodd"/><path clip-rule="evenodd" d="M68.6,80.7c0,0.5-0.4,0.8-0.8,0.8c-0.5,0-0.8-0.3-0.8-0.8   s0.4-0.8,0.8-0.8C68.2,79.9,68.6,80.2,68.6,80.7L68.6,80.7z" fill="#DD2726" fill-rule="evenodd"/><path clip-rule="evenodd" d="M68.6,83.9c0,0.4-0.4,0.8-0.8,0.8c-0.5,0-0.8-0.4-0.8-0.8   c0-0.5,0.4-0.8,0.8-0.8C68.2,83.1,68.6,83.5,68.6,83.9L68.6,83.9z" fill="#DD2726" fill-rule="evenodd"/><path clip-rule="evenodd" d="M68.6,87.1c0,0.5-0.4,0.8-0.8,0.8c-0.5,0-0.8-0.4-0.8-0.8   c0-0.4,0.4-0.8,0.8-0.8C68.2,86.4,68.6,86.7,68.6,87.1L68.6,87.1z" fill="#DD2726" fill-rule="evenodd"/><path clip-rule="evenodd" d="M71.8,16.1c0,0.5-0.4,0.8-0.8,0.8s-0.8-0.3-0.8-0.8   c0-0.5,0.3-0.8,0.8-0.8S71.8,15.6,71.8,16.1L71.8,16.1z" fill="#DD2726" fill-rule="evenodd"/><path clip-rule="evenodd" d="M71.8,19.3c0,0.4-0.4,0.8-0.8,0.8s-0.8-0.4-0.8-0.8   c0-0.5,0.3-0.8,0.8-0.8S71.8,18.9,71.8,19.3L71.8,19.3z" fill="#DD2726" fill-rule="evenodd"/><path clip-rule="evenodd" d="M71.8,22.5c0,0.5-0.4,0.8-0.8,0.8s-0.8-0.4-0.8-0.8   c0-0.4,0.3-0.8,0.8-0.8S71.8,22.1,71.8,22.5L71.8,22.5z" fill="#DD2726" fill-rule="evenodd"/><path clip-rule="evenodd" d="M71.8,25.8c0,0.4-0.4,0.8-0.8,0.8s-0.8-0.4-0.8-0.8   c0-0.5,0.3-0.8,0.8-0.8S71.8,25.3,71.8,25.8L71.8,25.8z" fill="#DD2726" fill-rule="evenodd"/><path clip-rule="evenodd" d="M71.8,29c0,0.5-0.4,0.8-0.8,0.8s-0.8-0.4-0.8-0.8   c0-0.4,0.3-0.8,0.8-0.8S71.8,28.6,71.8,29L71.8,29z" fill="#DD2726" fill-rule="evenodd"/><path clip-rule="evenodd" d="M71.8,32.2c0,0.5-0.4,0.8-0.8,0.8s-0.8-0.4-0.8-0.8   c0-0.4,0.3-0.8,0.8-0.8S71.8,31.8,71.8,32.2L71.8,32.2z" fill="#DD2726" fill-rule="evenodd"/><path clip-rule="evenodd" d="M71.8,35.5c0,0.5-0.4,0.8-0.8,0.8s-0.8-0.4-0.8-0.8   c0-0.5,0.3-0.8,0.8-0.8S71.8,35,71.8,35.5L71.8,35.5z" fill="#DD2726" fill-rule="evenodd"/><path clip-rule="evenodd" d="M71.8,38.7c0,0.4-0.4,0.8-0.8,0.8s-0.8-0.4-0.8-0.8   c0-0.5,0.3-0.8,0.8-0.8S71.8,38.2,71.8,38.7L71.8,38.7z" fill="#DD2726" fill-rule="evenodd"/><path clip-rule="evenodd" d="M71.8,41.9c0,0.5-0.4,0.8-0.8,0.8s-0.8-0.4-0.8-0.8   c0-0.4,0.3-0.8,0.8-0.8S71.8,41.5,71.8,41.9L71.8,41.9z" fill="#DD2726" fill-rule="evenodd"/><path clip-rule="evenodd" d="M71.8,45.1c0,0.5-0.4,0.8-0.8,0.8s-0.8-0.4-0.8-0.8   s0.3-0.8,0.8-0.8S71.8,44.7,71.8,45.1L71.8,45.1z" fill="#DD2726" fill-rule="evenodd"/><path clip-rule="evenodd" d="M71.8,48.4c0,0.5-0.4,0.8-0.8,0.8s-0.8-0.3-0.8-0.8   c0-0.5,0.3-0.8,0.8-0.8S71.8,47.9,71.8,48.4L71.8,48.4z" fill="#DD2726" fill-rule="evenodd"/><path clip-rule="evenodd" d="M71.8,51.6c0,0.5-0.4,0.8-0.8,0.8s-0.8-0.4-0.8-0.8   c0-0.5,0.3-0.8,0.8-0.8S71.8,51.1,71.8,51.6L71.8,51.6z" fill="#DD2726" fill-rule="evenodd"/><path clip-rule="evenodd" d="M71.8,54.9c0,0.5-0.4,0.8-0.8,0.8s-0.8-0.3-0.8-0.8   c0-0.5,0.3-0.8,0.8-0.8S71.8,54.4,71.8,54.9L71.8,54.9z" fill="#DD2726" fill-rule="evenodd"/><path clip-rule="evenodd" d="M71.8,58.1c0,0.4-0.4,0.8-0.8,0.8s-0.8-0.4-0.8-0.8   c0-0.5,0.3-0.8,0.8-0.8S71.8,57.6,71.8,58.1L71.8,58.1z" fill="#DD2726" fill-rule="evenodd"/><path clip-rule="evenodd" d="M71.8,61.3c0,0.5-0.4,0.8-0.8,0.8s-0.8-0.4-0.8-0.8   c0-0.4,0.3-0.8,0.8-0.8S71.8,60.9,71.8,61.3L71.8,61.3z" fill="#DD2726" fill-rule="evenodd"/><path clip-rule="evenodd" d="M71.8,64.5c0,0.5-0.4,0.8-0.8,0.8s-0.8-0.4-0.8-0.8   c0-0.4,0.3-0.8,0.8-0.8S71.8,64.1,71.8,64.5L71.8,64.5z" fill="#DD2726" fill-rule="evenodd"/><path clip-rule="evenodd" d="M71.8,67.8c0,0.5-0.4,0.8-0.8,0.8s-0.8-0.4-0.8-0.8S70.6,67,71,67   S71.8,67.3,71.8,67.8L71.8,67.8z" fill="#DD2726" fill-rule="evenodd"/><path clip-rule="evenodd" d="M71.8,71c0,0.5-0.4,0.8-0.8,0.8s-0.8-0.3-0.8-0.8s0.3-0.8,0.8-0.8   S71.8,70.5,71.8,71L71.8,71z" fill="#DD2726" fill-rule="evenodd"/><path clip-rule="evenodd" d="M71.8,74.3c0,0.4-0.4,0.8-0.8,0.8s-0.8-0.4-0.8-0.8   c0-0.5,0.3-0.8,0.8-0.8S71.8,73.8,71.8,74.3L71.8,74.3z" fill="#DD2726" fill-rule="evenodd"/><path clip-rule="evenodd" d="M71.8,77.4c0,0.5-0.4,0.8-0.8,0.8s-0.8-0.4-0.8-0.8   s0.3-0.8,0.8-0.8S71.8,77,71.8,77.4L71.8,77.4z" fill="#DD2726" fill-rule="evenodd"/><path clip-rule="evenodd" d="M71.8,80.7c0,0.5-0.4,0.8-0.8,0.8s-0.8-0.3-0.8-0.8   s0.3-0.8,0.8-0.8S71.8,80.2,71.8,80.7L71.8,80.7z" fill="#DD2726" fill-rule="evenodd"/><path clip-rule="evenodd" d="M71.8,83.9c0,0.4-0.4,0.8-0.8,0.8s-0.8-0.4-0.8-0.8   c0-0.5,0.3-0.8,0.8-0.8S71.8,83.5,71.8,83.9L71.8,83.9z" fill="#DD2726" fill-rule="evenodd"/><path clip-rule="evenodd" d="M71.8,87.1c0,0.5-0.4,0.8-0.8,0.8s-0.8-0.4-0.8-0.8   c0-0.4,0.3-0.8,0.8-0.8S71.8,86.7,71.8,87.1L71.8,87.1z" fill="#DD2726" fill-rule="evenodd"/><path clip-rule="evenodd" d="M75,19.3c0,0.5-0.3,0.8-0.8,0.8c-0.5,0-0.8-0.3-0.8-0.8   c0-0.5,0.4-0.8,0.8-0.8C74.7,18.5,75,18.8,75,19.3L75,19.3z" fill="#DD2726" fill-rule="evenodd"/><path clip-rule="evenodd" d="M75,22.5c0,0.4-0.3,0.8-0.8,0.8c-0.5,0-0.8-0.4-0.8-0.8   c0-0.5,0.4-0.8,0.8-0.8C74.7,21.7,75,22.1,75,22.5L75,22.5z" fill="#DD2726" fill-rule="evenodd"/><path clip-rule="evenodd" d="M75,25.7c0,0.5-0.3,0.8-0.8,0.8c-0.5,0-0.8-0.3-0.8-0.8   s0.4-0.8,0.8-0.8C74.7,24.9,75,25.3,75,25.7L75,25.7z" fill="#DD2726" fill-rule="evenodd"/><path clip-rule="evenodd" d="M75,29c0,0.4-0.3,0.8-0.8,0.8c-0.5,0-0.8-0.4-0.8-0.8   c0-0.5,0.4-0.8,0.8-0.8C74.7,28.2,75,28.5,75,29L75,29z" fill="#DD2726" fill-rule="evenodd"/><path clip-rule="evenodd" d="M75,32.2c0,0.4-0.3,0.8-0.8,0.8c-0.5,0-0.8-0.4-0.8-0.8   c0-0.5,0.4-0.8,0.8-0.8C74.7,31.4,75,31.8,75,32.2L75,32.2z" fill="#DD2726" fill-rule="evenodd"/><path clip-rule="evenodd" d="M75,35.5c0,0.5-0.3,0.8-0.8,0.8c-0.5,0-0.8-0.4-0.8-0.8   c0-0.4,0.4-0.8,0.8-0.8C74.7,34.7,75,35,75,35.5L75,35.5z" fill="#DD2726" fill-rule="evenodd"/><path clip-rule="evenodd" d="M75,38.7c0,0.5-0.3,0.8-0.8,0.8c-0.5,0-0.8-0.3-0.8-0.8   s0.4-0.8,0.8-0.8C74.7,37.8,75,38.2,75,38.7L75,38.7z" fill="#DD2726" fill-rule="evenodd"/><path clip-rule="evenodd" d="M75,41.9c0,0.5-0.3,0.8-0.8,0.8c-0.5,0-0.8-0.4-0.8-0.8   c0-0.4,0.4-0.8,0.8-0.8C74.7,41.1,75,41.5,75,41.9L75,41.9z" fill="#DD2726" fill-rule="evenodd"/><path clip-rule="evenodd" d="M75,45.1c0,0.5-0.3,0.8-0.8,0.8c-0.5,0-0.8-0.4-0.8-0.8   c0-0.4,0.4-0.8,0.8-0.8C74.7,44.3,75,44.7,75,45.1L75,45.1z" fill="#DD2726" fill-rule="evenodd"/><path clip-rule="evenodd" d="M75,48.4c0,0.5-0.3,0.8-0.8,0.8c-0.5,0-0.8-0.4-0.8-0.8   c0-0.5,0.4-0.8,0.8-0.8C74.7,47.6,75,47.9,75,48.4L75,48.4z" fill="#DD2726" fill-rule="evenodd"/><path clip-rule="evenodd" d="M75,51.6c0,0.5-0.3,0.8-0.8,0.8c-0.5,0-0.8-0.4-0.8-0.8   c0-0.4,0.4-0.8,0.8-0.8C74.7,50.8,75,51.1,75,51.6L75,51.6z" fill="#DD2726" fill-rule="evenodd"/><path clip-rule="evenodd" d="M75,54.8c0,0.5-0.3,0.8-0.8,0.8c-0.5,0-0.8-0.4-0.8-0.8   c0-0.5,0.4-0.8,0.8-0.8C74.7,54,75,54.4,75,54.8L75,54.8z" fill="#DD2726" fill-rule="evenodd"/><path clip-rule="evenodd" d="M75,58.1c0,0.5-0.3,0.8-0.8,0.8c-0.5,0-0.8-0.3-0.8-0.8   c0-0.5,0.4-0.8,0.8-0.8C74.7,57.2,75,57.6,75,58.1L75,58.1z" fill="#DD2726" fill-rule="evenodd"/><path clip-rule="evenodd" d="M75,61.3c0,0.4-0.3,0.8-0.8,0.8c-0.5,0-0.8-0.4-0.8-0.8   c0-0.5,0.4-0.8,0.8-0.8C74.7,60.5,75,60.9,75,61.3L75,61.3z" fill="#DD2726" fill-rule="evenodd"/><path clip-rule="evenodd" d="M75,64.5c0,0.4-0.3,0.8-0.8,0.8c-0.5,0-0.8-0.4-0.8-0.8   c0-0.5,0.4-0.8,0.8-0.8C74.7,63.7,75,64.1,75,64.5L75,64.5z" fill="#DD2726" fill-rule="evenodd"/><path clip-rule="evenodd" d="M75,67.7c0,0.5-0.3,0.8-0.8,0.8c-0.5,0-0.8-0.4-0.8-0.8   c0-0.4,0.4-0.8,0.8-0.8C74.7,67,75,67.3,75,67.7L75,67.7z" fill="#DD2726" fill-rule="evenodd"/><path clip-rule="evenodd" d="M75,71c0,0.5-0.3,0.8-0.8,0.8c-0.5,0-0.8-0.4-0.8-0.8   s0.4-0.8,0.8-0.8C74.7,70.2,75,70.5,75,71L75,71z" fill="#DD2726" fill-rule="evenodd"/><path clip-rule="evenodd" d="M75,74.2c0,0.5-0.3,0.8-0.8,0.8c-0.5,0-0.8-0.3-0.8-0.8   s0.4-0.8,0.8-0.8C74.7,73.4,75,73.8,75,74.2L75,74.2z" fill="#DD2726" fill-rule="evenodd"/><path clip-rule="evenodd" d="M75,77.4c0,0.5-0.3,0.8-0.8,0.8c-0.5,0-0.8-0.4-0.8-0.8   s0.4-0.8,0.8-0.8C74.7,76.6,75,76.9,75,77.4L75,77.4z" fill="#DD2726" fill-rule="evenodd"/><path clip-rule="evenodd" d="M75,80.7c0,0.5-0.3,0.8-0.8,0.8c-0.5,0-0.8-0.3-0.8-0.8   c0-0.5,0.4-0.8,0.8-0.8C74.7,79.8,75,80.2,75,80.7L75,80.7z" fill="#DD2726" fill-rule="evenodd"/><path clip-rule="evenodd" d="M75,83.9c0,0.5-0.3,0.8-0.8,0.8c-0.5,0-0.8-0.3-0.8-0.8   c0-0.5,0.4-0.8,0.8-0.8C74.7,83.1,75,83.4,75,83.9L75,83.9z" fill="#DD2726" fill-rule="evenodd"/><path clip-rule="evenodd" d="M75,87.1c0,0.4-0.3,0.8-0.8,0.8c-0.5,0-0.8-0.4-0.8-0.8   c0-0.5,0.4-0.8,0.8-0.8C74.7,86.3,75,86.7,75,87.1L75,87.1z" fill="#DD2726" fill-rule="evenodd"/><path clip-rule="evenodd" d="M78.3,19.3c0,0.5-0.4,0.8-0.8,0.8c-0.5,0-0.8-0.3-0.8-0.8   c0-0.5,0.4-0.8,0.8-0.8C77.9,18.5,78.3,18.8,78.3,19.3L78.3,19.3z" fill="#DD2726" fill-rule="evenodd"/><path clip-rule="evenodd" d="M78.3,22.5c0,0.4-0.4,0.8-0.8,0.8c-0.5,0-0.8-0.4-0.8-0.8   c0-0.5,0.4-0.8,0.8-0.8C77.9,21.7,78.3,22.1,78.3,22.5L78.3,22.5z" fill="#DD2726" fill-rule="evenodd"/><path clip-rule="evenodd" d="M78.3,25.7c0,0.5-0.4,0.8-0.8,0.8c-0.5,0-0.8-0.3-0.8-0.8   s0.4-0.8,0.8-0.8C77.9,24.9,78.3,25.3,78.3,25.7L78.3,25.7z" fill="#DD2726" fill-rule="evenodd"/><path clip-rule="evenodd" d="M78.3,29c0,0.4-0.4,0.8-0.8,0.8c-0.5,0-0.8-0.4-0.8-0.8   c0-0.5,0.4-0.8,0.8-0.8C77.9,28.2,78.3,28.5,78.3,29L78.3,29z" fill="#DD2726" fill-rule="evenodd"/><path clip-rule="evenodd" d="M78.3,32.2c0,0.4-0.4,0.8-0.8,0.8c-0.5,0-0.8-0.4-0.8-0.8   c0-0.5,0.4-0.8,0.8-0.8C77.9,31.4,78.3,31.8,78.3,32.2L78.3,32.2z" fill="#DD2726" fill-rule="evenodd"/><path clip-rule="evenodd" d="M78.3,35.5c0,0.5-0.4,0.8-0.8,0.8c-0.5,0-0.8-0.4-0.8-0.8   c0-0.4,0.4-0.8,0.8-0.8C77.9,34.7,78.3,35,78.3,35.5L78.3,35.5z" fill="#DD2726" fill-rule="evenodd"/><path clip-rule="evenodd" d="M78.3,38.7c0,0.5-0.4,0.8-0.8,0.8c-0.5,0-0.8-0.3-0.8-0.8   s0.4-0.8,0.8-0.8C77.9,37.8,78.3,38.2,78.3,38.7L78.3,38.7z" fill="#DD2726" fill-rule="evenodd"/><path clip-rule="evenodd" d="M78.3,41.9c0,0.5-0.4,0.8-0.8,0.8c-0.5,0-0.8-0.4-0.8-0.8   c0-0.4,0.4-0.8,0.8-0.8C77.9,41.1,78.3,41.5,78.3,41.9L78.3,41.9z" fill="#DD2726" fill-rule="evenodd"/><path clip-rule="evenodd" d="M78.3,45.1c0,0.5-0.4,0.8-0.8,0.8c-0.5,0-0.8-0.4-0.8-0.8   c0-0.4,0.4-0.8,0.8-0.8C77.9,44.3,78.3,44.7,78.3,45.1L78.3,45.1z" fill="#DD2726" fill-rule="evenodd"/><path clip-rule="evenodd" d="M78.3,48.4c0,0.5-0.4,0.8-0.8,0.8c-0.5,0-0.8-0.4-0.8-0.8   c0-0.5,0.4-0.8,0.8-0.8C77.9,47.6,78.3,47.9,78.3,48.4L78.3,48.4z" fill="#DD2726" fill-rule="evenodd"/><path clip-rule="evenodd" d="M78.3,51.6c0,0.5-0.4,0.8-0.8,0.8c-0.5,0-0.8-0.4-0.8-0.8   c0-0.4,0.4-0.8,0.8-0.8C77.9,50.8,78.3,51.1,78.3,51.6L78.3,51.6z" fill="#DD2726" fill-rule="evenodd"/><path clip-rule="evenodd" d="M78.3,54.8c0,0.5-0.4,0.8-0.8,0.8c-0.5,0-0.8-0.4-0.8-0.8   c0-0.5,0.4-0.8,0.8-0.8C77.9,54,78.3,54.4,78.3,54.8L78.3,54.8z" fill="#DD2726" fill-rule="evenodd"/><path clip-rule="evenodd" d="M78.3,58.1c0,0.5-0.4,0.8-0.8,0.8c-0.5,0-0.8-0.3-0.8-0.8   c0-0.5,0.4-0.8,0.8-0.8C77.9,57.2,78.3,57.6,78.3,58.1L78.3,58.1z" fill="#DD2726" fill-rule="evenodd"/><path clip-rule="evenodd" d="M78.3,61.3c0,0.4-0.4,0.8-0.8,0.8c-0.5,0-0.8-0.4-0.8-0.8   c0-0.5,0.4-0.8,0.8-0.8C77.9,60.5,78.3,60.9,78.3,61.3L78.3,61.3z" fill="#DD2726" fill-rule="evenodd"/><path clip-rule="evenodd" d="M78.3,64.5c0,0.4-0.4,0.8-0.8,0.8c-0.5,0-0.8-0.4-0.8-0.8   c0-0.5,0.4-0.8,0.8-0.8C77.9,63.7,78.3,64.1,78.3,64.5L78.3,64.5z" fill="#DD2726" fill-rule="evenodd"/><path clip-rule="evenodd" d="M78.3,67.7c0,0.5-0.4,0.8-0.8,0.8c-0.5,0-0.8-0.4-0.8-0.8   c0-0.4,0.4-0.8,0.8-0.8C77.9,67,78.3,67.3,78.3,67.7L78.3,67.7z" fill="#DD2726" fill-rule="evenodd"/><path clip-rule="evenodd" d="M78.3,71c0,0.5-0.4,0.8-0.8,0.8c-0.5,0-0.8-0.4-0.8-0.8   s0.4-0.8,0.8-0.8C77.9,70.2,78.3,70.5,78.3,71L78.3,71z" fill="#DD2726" fill-rule="evenodd"/><path clip-rule="evenodd" d="M78.3,74.2c0,0.5-0.4,0.8-0.8,0.8c-0.5,0-0.8-0.3-0.8-0.8   s0.4-0.8,0.8-0.8C77.9,73.4,78.3,73.8,78.3,74.2L78.3,74.2z" fill="#DD2726" fill-rule="evenodd"/><path clip-rule="evenodd" d="M78.3,77.4c0,0.5-0.4,0.8-0.8,0.8c-0.5,0-0.8-0.4-0.8-0.8   s0.4-0.8,0.8-0.8C77.9,76.6,78.3,76.9,78.3,77.4L78.3,77.4z" fill="#DD2726" fill-rule="evenodd"/><path clip-rule="evenodd" d="M78.3,80.7c0,0.5-0.4,0.8-0.8,0.8c-0.5,0-0.8-0.3-0.8-0.8   c0-0.5,0.4-0.8,0.8-0.8C77.9,79.8,78.3,80.2,78.3,80.7L78.3,80.7z" fill="#DD2726" fill-rule="evenodd"/><path clip-rule="evenodd" d="M78.3,83.9c0,0.5-0.4,0.8-0.8,0.8c-0.5,0-0.8-0.3-0.8-0.8   c0-0.5,0.4-0.8,0.8-0.8C77.9,83.1,78.3,83.4,78.3,83.9L78.3,83.9z" fill="#DD2726" fill-rule="evenodd"/><path clip-rule="evenodd" d="M81.5,22.5c0,0.4-0.4,0.8-0.8,0.8c-0.5,0-0.8-0.4-0.8-0.8   c0-0.5,0.4-0.8,0.8-0.8C81.1,21.7,81.5,22.1,81.5,22.5L81.5,22.5z" fill="#010101" fill-rule="evenodd"/><path clip-rule="evenodd" d="M81.5,25.7c0,0.5-0.4,0.8-0.8,0.8c-0.5,0-0.8-0.3-0.8-0.8   s0.4-0.8,0.8-0.8C81.1,24.9,81.5,25.3,81.5,25.7L81.5,25.7z" fill="#010101" fill-rule="evenodd"/><path clip-rule="evenodd" d="M81.5,29c0,0.4-0.4,0.8-0.8,0.8c-0.5,0-0.8-0.4-0.8-0.8   c0-0.5,0.4-0.8,0.8-0.8C81.1,28.2,81.5,28.5,81.5,29L81.5,29z" fill="#010101" fill-rule="evenodd"/><path clip-rule="evenodd" d="M81.5,32.2c0,0.4-0.4,0.8-0.8,0.8c-0.5,0-0.8-0.4-0.8-0.8   c0-0.5,0.4-0.8,0.8-0.8C81.1,31.4,81.5,31.8,81.5,32.2L81.5,32.2z" fill="#010101" fill-rule="evenodd"/><path clip-rule="evenodd" d="M81.5,35.5c0,0.5-0.4,0.8-0.8,0.8c-0.5,0-0.8-0.4-0.8-0.8   c0-0.4,0.4-0.8,0.8-0.8C81.1,34.7,81.5,35,81.5,35.5L81.5,35.5z" fill="#010101" fill-rule="evenodd"/><path clip-rule="evenodd" d="M81.5,38.7c0,0.5-0.4,0.8-0.8,0.8c-0.5,0-0.8-0.3-0.8-0.8   s0.4-0.8,0.8-0.8C81.1,37.8,81.5,38.2,81.5,38.7L81.5,38.7z" fill="#010101" fill-rule="evenodd"/><path clip-rule="evenodd" d="M81.5,41.9c0,0.5-0.4,0.8-0.8,0.8c-0.5,0-0.8-0.4-0.8-0.8   c0-0.4,0.4-0.8,0.8-0.8C81.1,41.1,81.5,41.5,81.5,41.9L81.5,41.9z" fill="#010101" fill-rule="evenodd"/><path clip-rule="evenodd" d="M81.5,45.1c0,0.5-0.4,0.8-0.8,0.8c-0.5,0-0.8-0.4-0.8-0.8   c0-0.4,0.4-0.8,0.8-0.8C81.1,44.3,81.5,44.7,81.5,45.1L81.5,45.1z" fill="#010101" fill-rule="evenodd"/><path clip-rule="evenodd" d="M81.5,48.4c0,0.5-0.4,0.8-0.8,0.8c-0.5,0-0.8-0.4-0.8-0.8   c0-0.5,0.4-0.8,0.8-0.8C81.1,47.6,81.5,47.9,81.5,48.4L81.5,48.4z" fill="#010101" fill-rule="evenodd"/><path clip-rule="evenodd" d="M81.5,51.6c0,0.5-0.4,0.8-0.8,0.8c-0.5,0-0.8-0.4-0.8-0.8   c0-0.4,0.4-0.8,0.8-0.8C81.1,50.8,81.5,51.1,81.5,51.6L81.5,51.6z" fill="#010101" fill-rule="evenodd"/><path clip-rule="evenodd" d="M81.5,54.8c0,0.5-0.4,0.8-0.8,0.8c-0.5,0-0.8-0.4-0.8-0.8   c0-0.5,0.4-0.8,0.8-0.8C81.1,54,81.5,54.4,81.5,54.8L81.5,54.8z" fill="#010101" fill-rule="evenodd"/><path clip-rule="evenodd" d="M81.5,58.1c0,0.5-0.4,0.8-0.8,0.8c-0.5,0-0.8-0.3-0.8-0.8   c0-0.5,0.4-0.8,0.8-0.8C81.1,57.2,81.5,57.6,81.5,58.1L81.5,58.1z" fill="#010101" fill-rule="evenodd"/><path clip-rule="evenodd" d="M81.5,61.3c0,0.4-0.4,0.8-0.8,0.8c-0.5,0-0.8-0.4-0.8-0.8   c0-0.5,0.4-0.8,0.8-0.8C81.1,60.5,81.5,60.9,81.5,61.3L81.5,61.3z" fill="#010101" fill-rule="evenodd"/><path clip-rule="evenodd" d="M81.5,64.5c0,0.4-0.4,0.8-0.8,0.8c-0.5,0-0.8-0.4-0.8-0.8   c0-0.5,0.4-0.8,0.8-0.8C81.1,63.7,81.5,64.1,81.5,64.5L81.5,64.5z" fill="#010101" fill-rule="evenodd"/><path clip-rule="evenodd" d="M81.5,67.7c0,0.5-0.4,0.8-0.8,0.8c-0.5,0-0.8-0.4-0.8-0.8   c0-0.4,0.4-0.8,0.8-0.8C81.1,67,81.5,67.3,81.5,67.7L81.5,67.7z" fill="#010101" fill-rule="evenodd"/><path clip-rule="evenodd" d="M81.5,71c0,0.5-0.4,0.8-0.8,0.8c-0.5,0-0.8-0.4-0.8-0.8   s0.4-0.8,0.8-0.8C81.1,70.2,81.5,70.5,81.5,71L81.5,71z" fill="#010101" fill-rule="evenodd"/><path clip-rule="evenodd" d="M81.5,74.2c0,0.5-0.4,0.8-0.8,0.8c-0.5,0-0.8-0.3-0.8-0.8   s0.4-0.8,0.8-0.8C81.1,73.4,81.5,73.8,81.5,74.2L81.5,74.2z" fill="#010101" fill-rule="evenodd"/><path clip-rule="evenodd" d="M81.5,77.4c0,0.5-0.4,0.8-0.8,0.8c-0.5,0-0.8-0.4-0.8-0.8   s0.4-0.8,0.8-0.8C81.1,76.6,81.5,76.9,81.5,77.4L81.5,77.4z" fill="#010101" fill-rule="evenodd"/><path clip-rule="evenodd" d="M81.5,80.7c0,0.5-0.4,0.8-0.8,0.8c-0.5,0-0.8-0.3-0.8-0.8   c0-0.5,0.4-0.8,0.8-0.8C81.1,79.8,81.5,80.2,81.5,80.7L81.5,80.7z" fill="#010101" fill-rule="evenodd"/><path clip-rule="evenodd" d="M84.7,22.5c0,0.4-0.4,0.8-0.8,0.8c-0.5,0-0.8-0.4-0.8-0.8   c0-0.5,0.4-0.8,0.8-0.8C84.4,21.7,84.7,22.1,84.7,22.5L84.7,22.5z" fill="#010101" fill-rule="evenodd"/><path clip-rule="evenodd" d="M84.7,25.7c0,0.5-0.4,0.8-0.8,0.8c-0.5,0-0.8-0.3-0.8-0.8   s0.4-0.8,0.8-0.8C84.4,24.9,84.7,25.3,84.7,25.7L84.7,25.7z" fill="#010101" fill-rule="evenodd"/><path clip-rule="evenodd" d="M84.7,29c0,0.4-0.4,0.8-0.8,0.8c-0.5,0-0.8-0.4-0.8-0.8   c0-0.5,0.4-0.8,0.8-0.8C84.4,28.2,84.7,28.5,84.7,29L84.7,29z" fill="#010101" fill-rule="evenodd"/><path clip-rule="evenodd" d="M84.7,32.2c0,0.4-0.4,0.8-0.8,0.8c-0.5,0-0.8-0.4-0.8-0.8   c0-0.5,0.4-0.8,0.8-0.8C84.4,31.4,84.7,31.8,84.7,32.2L84.7,32.2z" fill="#010101" fill-rule="evenodd"/><path clip-rule="evenodd" d="M84.7,35.5c0,0.5-0.4,0.8-0.8,0.8c-0.5,0-0.8-0.4-0.8-0.8   c0-0.4,0.4-0.8,0.8-0.8C84.4,34.7,84.7,35,84.7,35.5L84.7,35.5z" fill="#010101" fill-rule="evenodd"/><path clip-rule="evenodd" d="M84.7,38.7c0,0.5-0.4,0.8-0.8,0.8c-0.5,0-0.8-0.3-0.8-0.8   s0.4-0.8,0.8-0.8C84.4,37.8,84.7,38.2,84.7,38.7L84.7,38.7z" fill="#010101" fill-rule="evenodd"/><path clip-rule="evenodd" d="M84.7,41.9c0,0.5-0.4,0.8-0.8,0.8c-0.5,0-0.8-0.4-0.8-0.8   c0-0.4,0.4-0.8,0.8-0.8C84.4,41.1,84.7,41.5,84.7,41.9L84.7,41.9z" fill="#010101" fill-rule="evenodd"/><path clip-rule="evenodd" d="M84.7,45.1c0,0.5-0.4,0.8-0.8,0.8c-0.5,0-0.8-0.4-0.8-0.8   c0-0.4,0.4-0.8,0.8-0.8C84.4,44.3,84.7,44.7,84.7,45.1L84.7,45.1z" fill="#010101" fill-rule="evenodd"/><path clip-rule="evenodd" d="M84.7,48.4c0,0.5-0.4,0.8-0.8,0.8c-0.5,0-0.8-0.4-0.8-0.8   c0-0.5,0.4-0.8,0.8-0.8C84.4,47.6,84.7,47.9,84.7,48.4L84.7,48.4z" fill="#010101" fill-rule="evenodd"/><path clip-rule="evenodd" d="M84.7,51.6c0,0.5-0.4,0.8-0.8,0.8c-0.5,0-0.8-0.4-0.8-0.8   c0-0.4,0.4-0.8,0.8-0.8C84.4,50.8,84.7,51.1,84.7,51.6L84.7,51.6z" fill="#010101" fill-rule="evenodd"/><path clip-rule="evenodd" d="M84.7,54.8c0,0.5-0.4,0.8-0.8,0.8c-0.5,0-0.8-0.4-0.8-0.8   c0-0.5,0.4-0.8,0.8-0.8C84.4,54,84.7,54.4,84.7,54.8L84.7,54.8z" fill="#010101" fill-rule="evenodd"/><path clip-rule="evenodd" d="M84.7,58.1c0,0.5-0.4,0.8-0.8,0.8c-0.5,0-0.8-0.3-0.8-0.8   c0-0.5,0.4-0.8,0.8-0.8C84.4,57.2,84.7,57.6,84.7,58.1L84.7,58.1z" fill="#010101" fill-rule="evenodd"/><path clip-rule="evenodd" d="M84.7,61.3c0,0.4-0.4,0.8-0.8,0.8c-0.5,0-0.8-0.4-0.8-0.8   c0-0.5,0.4-0.8,0.8-0.8C84.4,60.5,84.7,60.9,84.7,61.3L84.7,61.3z" fill="#010101" fill-rule="evenodd"/><path clip-rule="evenodd" d="M84.7,64.5c0,0.4-0.4,0.8-0.8,0.8c-0.5,0-0.8-0.4-0.8-0.8   c0-0.5,0.4-0.8,0.8-0.8C84.4,63.7,84.7,64.1,84.7,64.5L84.7,64.5z" fill="#010101" fill-rule="evenodd"/><path clip-rule="evenodd" d="M84.7,67.7c0,0.5-0.4,0.8-0.8,0.8c-0.5,0-0.8-0.4-0.8-0.8   c0-0.4,0.4-0.8,0.8-0.8C84.4,67,84.7,67.3,84.7,67.7L84.7,67.7z" fill="#010101" fill-rule="evenodd"/><path clip-rule="evenodd" d="M84.7,71c0,0.5-0.4,0.8-0.8,0.8c-0.5,0-0.8-0.4-0.8-0.8   s0.4-0.8,0.8-0.8C84.4,70.2,84.7,70.5,84.7,71L84.7,71z" fill="#010101" fill-rule="evenodd"/><path clip-rule="evenodd" d="M84.7,74.2c0,0.5-0.4,0.8-0.8,0.8c-0.5,0-0.8-0.3-0.8-0.8   s0.4-0.8,0.8-0.8C84.4,73.4,84.7,73.8,84.7,74.2L84.7,74.2z" fill="#010101" fill-rule="evenodd"/><path clip-rule="evenodd" d="M88,22.5c0,0.4-0.4,0.8-0.8,0.8c-0.5,0-0.8-0.4-0.8-0.8   c0-0.5,0.3-0.8,0.8-0.8C87.6,21.7,88,22.1,88,22.5L88,22.5z" fill="#010101" fill-rule="evenodd"/><path clip-rule="evenodd" d="M88,25.7c0,0.5-0.4,0.8-0.8,0.8c-0.5,0-0.8-0.4-0.8-0.8   s0.3-0.8,0.8-0.8C87.6,24.9,88,25.3,88,25.7L88,25.7z" fill="#010101" fill-rule="evenodd"/><path clip-rule="evenodd" d="M88,29c0,0.4-0.4,0.8-0.8,0.8c-0.5,0-0.8-0.4-0.8-0.8   c0-0.5,0.3-0.8,0.8-0.8C87.6,28.1,88,28.5,88,29L88,29z" fill="#010101" fill-rule="evenodd"/><path clip-rule="evenodd" d="M88,32.2c0,0.4-0.4,0.8-0.8,0.8c-0.5,0-0.8-0.4-0.8-0.8   c0-0.5,0.3-0.8,0.8-0.8C87.6,31.4,88,31.7,88,32.2L88,32.2z" fill="#010101" fill-rule="evenodd"/><path clip-rule="evenodd" d="M88,35.4c0,0.5-0.4,0.8-0.8,0.8c-0.5,0-0.8-0.4-0.8-0.8   c0-0.4,0.3-0.8,0.8-0.8C87.6,34.6,88,35,88,35.4L88,35.4z" fill="#010101" fill-rule="evenodd"/><path clip-rule="evenodd" d="M88,38.6c0,0.5-0.4,0.8-0.8,0.8c-0.5,0-0.8-0.3-0.8-0.8   s0.3-0.8,0.8-0.8C87.6,37.8,88,38.2,88,38.6L88,38.6z" fill="#010101" fill-rule="evenodd"/><path clip-rule="evenodd" d="M88,41.9c0,0.4-0.4,0.8-0.8,0.8c-0.5,0-0.8-0.4-0.8-0.8   c0-0.5,0.3-0.8,0.8-0.8C87.6,41.1,88,41.4,88,41.9L88,41.9z" fill="#010101" fill-rule="evenodd"/><path clip-rule="evenodd" d="M88,45.1c0,0.5-0.4,0.8-0.8,0.8c-0.5,0-0.8-0.4-0.8-0.8   c0-0.4,0.3-0.8,0.8-0.8C87.6,44.3,88,44.7,88,45.1L88,45.1z" fill="#010101" fill-rule="evenodd"/><path clip-rule="evenodd" d="M88,48.3c0,0.5-0.4,0.8-0.8,0.8c-0.5,0-0.8-0.4-0.8-0.8   c0-0.5,0.3-0.8,0.8-0.8C87.6,47.6,88,47.9,88,48.3L88,48.3z" fill="#010101" fill-rule="evenodd"/><path clip-rule="evenodd" d="M88,51.5c0,0.5-0.4,0.8-0.8,0.8c-0.5,0-0.8-0.4-0.8-0.8   c0-0.4,0.3-0.8,0.8-0.8C87.6,50.8,88,51.1,88,51.5L88,51.5z" fill="#010101" fill-rule="evenodd"/><path clip-rule="evenodd" d="M88,54.8c0,0.5-0.4,0.8-0.8,0.8c-0.5,0-0.8-0.4-0.8-0.8   c0-0.5,0.3-0.8,0.8-0.8C87.6,54,88,54.3,88,54.8L88,54.8z" fill="#010101" fill-rule="evenodd"/><path clip-rule="evenodd" d="M88,58c0,0.5-0.4,0.8-0.8,0.8c-0.5,0-0.8-0.3-0.8-0.8   c0-0.5,0.3-0.8,0.8-0.8C87.6,57.2,88,57.6,88,58L88,58z" fill="#010101" fill-rule="evenodd"/><path clip-rule="evenodd" d="M88,61.3c0,0.4-0.4,0.8-0.8,0.8c-0.5,0-0.8-0.4-0.8-0.8   c0-0.5,0.3-0.8,0.8-0.8C87.6,60.5,88,60.8,88,61.3L88,61.3z" fill="#010101" fill-rule="evenodd"/><path clip-rule="evenodd" d="M88,64.5c0,0.4-0.4,0.8-0.8,0.8c-0.5,0-0.8-0.4-0.8-0.8   c0-0.5,0.3-0.8,0.8-0.8C87.6,63.7,88,64,88,64.5L88,64.5z" fill="#010101" fill-rule="evenodd"/><path clip-rule="evenodd" d="M91.2,25.7c0,0.5-0.4,0.8-0.8,0.8c-0.4,0-0.8-0.4-0.8-0.8   s0.4-0.8,0.8-0.8C90.8,24.9,91.2,25.3,91.2,25.7L91.2,25.7z" fill="#010101" fill-rule="evenodd"/><path clip-rule="evenodd" d="M91.2,29c0,0.5-0.4,0.8-0.8,0.8c-0.4,0-0.8-0.3-0.8-0.8   c0-0.5,0.4-0.8,0.8-0.8C90.8,28.2,91.2,28.5,91.2,29L91.2,29z" fill="#010101" fill-rule="evenodd"/><path clip-rule="evenodd" d="M91.2,32.2c0,0.4-0.4,0.8-0.8,0.8c-0.4,0-0.8-0.4-0.8-0.8   c0-0.5,0.4-0.8,0.8-0.8C90.8,31.4,91.2,31.8,91.2,32.2L91.2,32.2z" fill="#010101" fill-rule="evenodd"/><path clip-rule="evenodd" d="M91.2,35.5c0,0.5-0.4,0.8-0.8,0.8c-0.4,0-0.8-0.4-0.8-0.8   c0-0.4,0.4-0.8,0.8-0.8C90.8,34.7,91.2,35,91.2,35.5L91.2,35.5z" fill="#010101" fill-rule="evenodd"/><path clip-rule="evenodd" d="M91.2,38.7c0,0.5-0.4,0.8-0.8,0.8c-0.4,0-0.8-0.3-0.8-0.8   s0.4-0.8,0.8-0.8C90.8,37.8,91.2,38.2,91.2,38.7L91.2,38.7z" fill="#010101" fill-rule="evenodd"/><path clip-rule="evenodd" d="M91.2,41.9c0,0.4-0.4,0.8-0.8,0.8c-0.4,0-0.8-0.4-0.8-0.8   c0-0.5,0.4-0.8,0.8-0.8C90.8,41.1,91.2,41.5,91.2,41.9L91.2,41.9z" fill="#010101" fill-rule="evenodd"/><path clip-rule="evenodd" d="M91.2,58.1c0,0.5-0.4,0.8-0.8,0.8c-0.4,0-0.8-0.4-0.8-0.8   c0-0.5,0.4-0.8,0.8-0.8C90.8,57.2,91.2,57.6,91.2,58.1L91.2,58.1z" fill="#010101" fill-rule="evenodd"/><path clip-rule="evenodd" d="M91.2,61.3c0,0.4-0.4,0.8-0.8,0.8c-0.4,0-0.8-0.4-0.8-0.8   c0-0.5,0.4-0.8,0.8-0.8C90.8,60.5,91.2,60.9,91.2,61.3L91.2,61.3z" fill="#010101" fill-rule="evenodd"/></g></svg>